<?xml version="1.0" standalone="no"?>
<!DOCTYPE svg PUBLIC "-//W3C//DTD SVG 1.1//EN" "http://www.w3.org/Graphics/SVG/1.1/DTD/svg11.dtd" >
<svg xmlns="http://www.w3.org/2000/svg" xmlns:xlink="http://www.w3.org/1999/xlink" version="1.1">
<metadata></metadata>
<defs>
<font id="nunitoregular" horiz-adv-x="1289" >
<font-face units-per-em="2048" ascent="1638" descent="-410" />
<missing-glyph horiz-adv-x="554" />
<glyph unicode="&#xfb01;" horiz-adv-x="1201" d="M-2 976q0 33 20.5 52t57.5 19h143v37q0 193 97 303.5t277 126.5l52 4q103 9 104 -65q0 -62 -74 -70l-51 -4q-115 -9 -172.5 -72.5t-57.5 -190.5v-69h570q36 0 55 -19t19 -52v-900q0 -41 -24.5 -63.5t-61.5 -22.5q-38 0 -63 22.5t-25 63.5v833h-470v-833q0 -41 -25 -63.5 t-61 -22.5q-39 0 -64 22.5t-25 63.5v833h-143q-37 0 -57.5 18.5t-20.5 48.5zM837 1404q0 47 32 77.5t83 30.5q50 0 83.5 -30.5t33.5 -77.5q0 -50 -32.5 -79.5t-84.5 -29.5q-51 0 -83 29.5t-32 79.5z" />
<glyph unicode="&#xfb02;" horiz-adv-x="1203" d="M-2 976q0 33 20.5 52t57.5 19h143v39q0 193 97 304.5t277 123.5l56 4q56 4 81 -11t25 -54q0 -62 -76 -70l-55 -4q-115 -9 -172.5 -72.5t-57.5 -190.5v-69h238q37 0 56.5 -19t19.5 -52q0 -32 -19.5 -49.5t-56.5 -17.5h-238v-833q0 -41 -25 -63.5t-61 -22.5q-39 0 -64 22.5 t-25 63.5v833h-143q-37 0 -57.5 18.5t-20.5 48.5zM868 76v1365q0 41 24.5 63.5t63.5 22.5q37 0 61 -22.5t24 -63.5v-1365q0 -41 -24.5 -63.5t-60.5 -22.5q-39 0 -63.5 22.5t-24.5 63.5z" />
<glyph horiz-adv-x="0" />
<glyph unicode="&#xd;" horiz-adv-x="554" />
<glyph horiz-adv-x="0" />
<glyph horiz-adv-x="0" />
<glyph unicode=" "  horiz-adv-x="554" />
<glyph unicode="&#x09;" horiz-adv-x="554" />
<glyph unicode="&#xa0;" horiz-adv-x="554" />
<glyph unicode="!" horiz-adv-x="491" d="M127 109q0 54 34 88.5t87 34.5q49 0 82 -34t33 -89q0 -53 -33 -86t-82 -33q-53 0 -87 33t-34 86zM140 1420q-5 49 25 78t80 29q49 0 79.5 -29t26.5 -78l-52 -975q-2 -30 -17 -45t-37 -15q-21 0 -36.5 16t-17.5 44z" />
<glyph unicode="&#x22;" horiz-adv-x="905" d="M140 1428q0 47 27.5 73t70.5 26q50 0 77 -32t18 -89l-36 -438q-6 -58 -59 -59q-23 0 -38 15.5t-19 43.5l-39 438zM570 1428q0 47 27.5 73t70.5 26q50 0 77 -32t18 -89l-36 -438q-6 -58 -59 -59q-23 0 -38 15.5t-19 43.5l-39 438z" />
<glyph unicode="#" d="M58 458q0 26 19.5 43.5t49.5 17.5h168l97 496h-222q-28 0 -48.5 19.5t-20.5 47.5q0 26 19.5 42.5t49.5 16.5h245l67 341q4 24 22.5 37.5t41.5 13.5q30 0 48.5 -18.5t18.5 -47.5q0 -13 -2 -20l-61 -306h345l66 341q2 21 21.5 36t43.5 15q30 0 48 -18.5t18 -47.5 q0 -13 -2 -20l-60 -306h133q31 0 50.5 -18.5t19.5 -47.5q0 -26 -19.5 -43t-50.5 -17h-157l-97 -496h211q29 0 49.5 -19.5t20.5 -47.5q0 -27 -19.5 -43.5t-50.5 -16.5h-234l-69 -351q-4 -24 -22.5 -37.5t-41.5 -13.5q-35 0 -55.5 24.5t-11.5 61.5l63 316h-345l-69 -351 q-2 -21 -20 -36t-42 -15q-28 0 -47 19t-19 47q0 12 2 20l62 316h-144q-30 0 -49.5 19t-19.5 47zM428 519h344l98 496h-343z" />
<glyph unicode="$" d="M94 232q0 30 17.5 53t40.5 23q26 0 63 -24q215 -151 432 -151q170 0 264.5 71t94.5 202q0 78 -48.5 126.5t-122.5 75t-201 57.5q-164 41 -263.5 82t-170.5 124t-71 225q0 117 58 210.5t162.5 151.5t239.5 71v166q0 34 21.5 56.5t54.5 22.5q34 0 54.5 -21.5t20.5 -57.5 v-166q115 -11 220 -54t177 -118q37 -31 37 -73q0 -30 -18.5 -52.5t-41.5 -22.5q-28 0 -60 24q-94 77 -184 113.5t-207 36.5q-164 0 -259.5 -75t-95.5 -204q0 -91 52.5 -145t130 -83t213.5 -63q157 -39 252 -77.5t161.5 -117t66.5 -210.5q0 -168 -121 -283t-321 -138v-165 q0 -37 -20.5 -58.5t-54.5 -21.5q-35 0 -55.5 21.5t-20.5 58.5v163q-131 9 -253.5 52t-208.5 123q-35 28 -35 72z" />
<glyph unicode="%" horiz-adv-x="1999" d="M119 1071q0 228 96.5 345t268.5 117t268.5 -117t96.5 -345q0 -230 -96.5 -347t-268.5 -117t-268.5 117t-96.5 347zM275 1071q0 -176 51.5 -258t157.5 -82q105 0 155.5 82t50.5 258q0 174 -50.5 255.5t-155.5 81.5t-157 -81.5t-52 -255.5zM511 35q0 26 16 49l821 1422 q29 47 72 47q28 0 48 -20.5t20 -50.5q0 -25 -13 -50l-823 -1422q-28 -47 -71 -47q-29 0 -49.5 19.5t-20.5 52.5zM1151 449q0 228 96.5 345t268.5 117q174 0 270 -116t96 -346t-96 -347t-270 -117q-172 0 -268.5 117t-96.5 347zM1309 449q0 -176 50.5 -258t156.5 -82 q107 0 157.5 81t50.5 259q0 175 -51.5 257t-156.5 82t-156 -82t-51 -257z" />
<glyph unicode="&#x26;" horiz-adv-x="1426" d="M111 380q0 142 88.5 253t268.5 216q-94 99 -138 179t-44 172q0 154 105.5 242.5t266.5 88.5q155 0 247.5 -81.5t92.5 -224.5q0 -116 -72 -206t-227 -188l364 -384q73 158 86 374q2 39 25.5 59.5t52.5 20.5q33 0 54.5 -22.5t19.5 -61.5q-19 -279 -133 -482l219 -228 q21 -23 21 -51q0 -29 -22.5 -51t-51.5 -22q-31 0 -54 23l-198 207q-97 -111 -222 -169.5t-263 -58.5q-141 0 -251 48.5t-172.5 138.5t-62.5 208zM284 385q0 -120 87 -189t233 -69q108 0 204.5 47.5t172.5 141.5l-417 433q-158 -95 -219 -178t-61 -186zM452 1200 q0 -66 35.5 -126.5t114.5 -142.5q133 86 188 148t55 138q0 82 -50.5 131.5t-134.5 49.5q-92 0 -150 -54t-58 -144z" />
<glyph unicode="'" horiz-adv-x="474" d="M140 1428q0 47 27.5 73t70.5 26q50 0 77 -32t18 -89l-36 -438q-6 -58 -59 -59q-23 0 -38 15.5t-19 43.5l-39 438z" />
<glyph unicode="(" horiz-adv-x="675" d="M222 566q0 482 227 918q29 49 76 49q26 0 44 -17.5t18 -42.5q0 -15 -6 -32q-181 -427 -181 -875q0 -449 181 -876q6 -19 6 -32q0 -29 -18.5 -44.5t-43.5 -15.5q-47 0 -76 49q-227 437 -227 919z" />
<glyph unicode=")" horiz-adv-x="675" d="M88 -344q0 8 9 34q178 429 178 876t-178 875q-9 26 -9 34q0 27 18.5 42.5t43.5 15.5q50 0 78 -49q226 -439 226 -918q0 -480 -226 -919q-28 -49 -78 -49q-26 0 -44 16t-18 42z" />
<glyph unicode="*" horiz-adv-x="967" d="M58 1149q0 28 18 47t53 17l261 -9l-140 218q-13 19 -14 41q0 26 21.5 45t48.5 19q36 0 57 -39l121 -230l120 228q21 41 61 41q26 0 45 -18.5t19 -43.5q0 -19 -13 -43l-135 -218l256 9q33 2 53.5 -17.5t20.5 -46.5t-20.5 -47t-53.5 -18l-256 8l135 -216q13 -21 13 -41 q0 -27 -20.5 -45t-45.5 -18q-37 0 -59 39l-120 227l-121 -230q-21 -38 -57 -38q-27 0 -48.5 19t-21.5 46q0 19 14 38l140 219l-261 -8q-32 -2 -51.5 18t-19.5 47z" />
<glyph unicode="+" d="M121 613q0 29 20.5 47.5t47.5 18.5h390v388q0 30 19 50t47 20t47.5 -20.5t19.5 -49.5v-388h389q28 0 48.5 -19.5t20.5 -46.5q0 -28 -19.5 -48.5t-49.5 -20.5h-389v-386q0 -31 -19.5 -50.5t-47.5 -19.5q-29 0 -47.5 20.5t-18.5 49.5v386h-390q-28 0 -48 20.5t-20 48.5z " />
<glyph unicode="," horiz-adv-x="491" d="M127 109q0 54 33 88.5t83 34.5q54 0 87 -42t33 -126q0 -170 -109 -286q-21 -24 -49 -23q-21 0 -39 16t-18 38q0 24 18 41q56 58 70 144q-47 4 -78 35t-31 80z" />
<glyph unicode="-" horiz-adv-x="913" d="M140 572q0 33 20.5 53t58.5 20h473q41 0 61.5 -20.5t20.5 -52.5t-20.5 -51.5t-61.5 -19.5h-473q-38 0 -58.5 19.5t-20.5 51.5z" />
<glyph unicode="." horiz-adv-x="491" d="M127 109q0 54 34 88.5t87 34.5q49 0 82 -34t33 -89q0 -53 -33 -86t-82 -33q-53 0 -87 33t-34 86z" />
<glyph unicode="/" horiz-adv-x="607" d="M-28 -60q0 13 7 30l507 1587q9 29 28 43.5t42 14.5q31 0 54.5 -21.5t23.5 -56.5q0 -6 -4 -27l-509 -1588q-10 -27 -28.5 -42t-43.5 -15q-30 0 -53.5 21.5t-23.5 53.5z" />
<glyph unicode="0" d="M114 757q0 380 135.5 578t395.5 198t395.5 -197t135.5 -577t-135.5 -578t-395.5 -198t-395.5 197.5t-135.5 576.5zM293 759q0 -322 85.5 -475t266.5 -153q180 0 266.5 153t86.5 475q0 325 -85.5 475.5t-267.5 150.5q-181 0 -266.5 -151.5t-85.5 -474.5z" />
<glyph unicode="1" d="M265 76q0 34 21.5 53t59.5 19h267v1153l-235 -152q-17 -11 -34 -12q-30 0 -52.5 28.5t-22.5 59.5q0 45 34 65l327 214q37 24 76 23q36 0 60 -24t24 -67v-1288h268q38 0 59.5 -19.5t21.5 -52.5q0 -37 -20 -56.5t-61 -19.5h-712q-40 0 -60.5 19.5t-20.5 56.5z" />
<glyph unicode="2" d="M138 1284q0 45 34 73q88 81 214.5 128.5t260.5 47.5q205 0 326 -107.5t121 -290.5q0 -131 -59 -251.5t-194 -268.5l-430 -467h681q39 0 60.5 -19.5t21.5 -52.5q0 -76 -82 -76h-842q-37 0 -60.5 22.5t-23.5 55.5q0 41 29 70l519 570q107 121 155.5 216.5t48.5 192.5 q0 125 -72 191.5t-203 66.5q-103 0 -197.5 -38t-189.5 -114q-32 -27 -61 -27q-24 0 -40.5 23t-16.5 55z" />
<glyph unicode="3" d="M114 234q0 33 17 54.5t41 21.5q31 0 60 -24q99 -80 194 -116.5t204 -36.5q160 0 242 73t82 211q0 277 -347 278h-115q-34 0 -54.5 22.5t-20.5 52.5t20.5 51.5t54.5 21.5h80q168 0 258.5 74t90.5 214q0 123 -73.5 188.5t-207.5 65.5q-100 0 -194.5 -38t-189.5 -114 q-30 -24 -61 -24q-24 0 -40.5 21.5t-16.5 53.5q0 41 34 73q88 81 213.5 128.5t259.5 47.5q207 0 329 -105t120 -284q-2 -129 -67.5 -226t-179.5 -140q138 -38 210 -133t72 -234q0 -198 -133.5 -312t-363.5 -114q-140 0 -268 47.5t-216 129.5q-35 32 -34 72z" />
<glyph unicode="4" d="M92 404q0 31 25 67l702 1017q30 39 78 39q36 0 62 -24t26 -67v-960h162q37 0 58.5 -20.5t21.5 -53.5q0 -73 -80 -73h-162v-249q0 -43 -24.5 -66.5t-63.5 -23.5t-62.5 23.5t-23.5 66.5v249h-637q-39 0 -60.5 21.5t-21.5 53.5zM293 476h518v745z" />
<glyph unicode="5" d="M164 234q0 33 16.5 54.5t41.5 21.5q30 0 59 -24q95 -78 190 -115.5t198 -37.5q159 0 249.5 90.5t90.5 244.5q0 150 -91 243t-243 93q-195 0 -318 -150q-30 -32 -73 -32q-31 0 -51 18t-20 50v742q0 37 22.5 60.5t63.5 23.5h757q39 0 61 -19.5t22 -53.5q0 -35 -22.5 -54 t-60.5 -19h-669v-539q60 57 141 88t176 31q143 0 252 -59.5t167.5 -168.5t58.5 -251q0 -141 -64 -252.5t-179.5 -172.5t-265.5 -61q-133 0 -260 47.5t-216 129.5q-34 32 -33 72z" />
<glyph unicode="6" horiz-adv-x="1287" d="M119 720q0 254 68.5 437t200 279.5t311.5 96.5q123 0 244.5 -47.5t207.5 -128.5q37 -35 35 -73q0 -32 -16.5 -53.5t-40.5 -21.5q-31 0 -62 24q-187 152 -363 152q-192 0 -299.5 -174.5t-107.5 -488.5v-27q49 121 160 189t251 68q137 0 244.5 -59.5t167.5 -169.5t60 -252 q0 -139 -62 -251.5t-173.5 -174.5t-252.5 -62q-275 0 -424 191t-149 546zM346 468q0 -150 93.5 -243.5t244.5 -93.5q147 0 234.5 92.5t87.5 244.5q0 153 -89.5 244.5t-235.5 91.5q-148 0 -241.5 -93.5t-93.5 -242.5z" />
<glyph unicode="7" d="M129 1441q0 36 20.5 55.5t59.5 19.5h873q38 0 58.5 -20.5t20.5 -52.5q0 -31 -20 -66l-713 -1344q-26 -48 -75 -48q-35 0 -61.5 24t-26.5 57q0 24 14 48l671 1254h-741q-39 0 -59.5 19t-20.5 54z" />
<glyph unicode="8" d="M101 402q0 140 75.5 239t208.5 137q-114 43 -180.5 135.5t-66.5 217.5q0 185 134 293.5t373 108.5q238 0 373 -108.5t135 -293.5q0 -125 -66.5 -218.5t-179.5 -134.5q134 -41 208.5 -139.5t74.5 -236.5q0 -195 -142.5 -306t-402.5 -111q-261 0 -402.5 111t-141.5 306z M275 413q0 -282 370 -282t370 282q0 281 -370 282q-370 0 -370 -282zM312 1118q0 -133 85 -204t248 -71t248.5 71t85.5 204q0 127 -85.5 198t-248.5 71q-164 0 -248.5 -71t-84.5 -198z" />
<glyph unicode="9" d="M103 232q0 33 17.5 54.5t41.5 21.5q30 0 62 -24q187 -153 363 -153q191 0 298.5 174.5t107.5 488.5v27q-49 -121 -160 -189t-250 -68q-138 0 -245.5 60t-168 169.5t-60.5 251.5q0 139 62.5 251t174.5 174.5t251 62.5q276 0 425.5 -191t149.5 -546q0 -254 -69 -437 t-200 -279.5t-312 -96.5q-123 0 -244 47.5t-207 129.5q-37 34 -37 72zM284 1047q0 -152 89 -243.5t236 -91.5q148 0 241.5 93.5t93.5 241.5q0 150 -93.5 244t-243.5 94q-146 0 -234.5 -92.5t-88.5 -245.5z" />
<glyph unicode=":" horiz-adv-x="491" d="M127 109q0 54 34 88.5t87 34.5q49 0 82 -34t33 -89q0 -53 -33 -86t-82 -33q-53 0 -87 33t-34 86zM127 948q0 54 34 87.5t87 33.5q49 0 82 -33.5t33 -87.5q0 -53 -33 -87t-82 -34q-53 0 -87 34t-34 87z" />
<glyph unicode=";" horiz-adv-x="491" d="M127 109q0 54 33 88.5t83 34.5q54 0 87 -42t33 -126q0 -170 -109 -286q-21 -24 -49 -23q-21 0 -39 16t-18 38q0 24 18 41q56 58 70 144q-47 4 -78 35t-31 80zM127 948q0 54 34 87.5t87 33.5q49 0 82 -33.5t33 -87.5q0 -53 -33 -87t-82 -34q-53 0 -87 34t-34 87z" />
<glyph unicode="&#x3c;" d="M121 613q0 33 16.5 58.5t47.5 38.5l869 394q26 10 42 10q33 0 53.5 -18.5t20.5 -48.5q0 -37 -37 -56l-847 -380l847 -379q37 -21 37 -58q0 -28 -20.5 -46.5t-53.5 -18.5q-24 0 -42 10l-869 392q-31 13 -47.5 40.5t-16.5 61.5z" />
<glyph unicode="=" d="M134 400q0 27 20.5 45.5t47.5 18.5h912q31 0 50 -20.5t19 -49.5q0 -26 -20.5 -45.5t-48.5 -19.5h-912q-29 0 -48.5 20.5t-19.5 50.5zM134 830q0 27 20.5 45.5t47.5 18.5h912q31 0 50 -20.5t19 -49.5q0 -26 -20.5 -45.5t-48.5 -19.5h-912q-29 0 -48.5 20.5t-19.5 50.5z " />
<glyph unicode="&#x3e;" d="M121 174q0 37 39 58l844 379l-844 380q-39 17 -39 56q0 30 20.5 48.5t51.5 18.5q17 0 43 -10l870 -394q29 -13 46.5 -39t17.5 -58q0 -34 -17.5 -61t-46.5 -41l-870 -392q-19 -9 -43 -10q-30 0 -51 18.5t-21 46.5z" />
<glyph unicode="?" horiz-adv-x="952" d="M-6 1280q0 43 34 74q86 82 209.5 130.5t246.5 48.5q187 0 302 -92.5t115 -242.5q0 -114 -48.5 -197t-146.5 -195q-93 -105 -144 -185.5t-61 -185.5q-2 -24 -17.5 -37t-38.5 -13q-24 0 -38.5 17t-14.5 47q0 134 48 228.5t139 206.5q73 92 108 157t35 143q0 93 -66.5 146 t-179.5 53q-97 0 -179 -38t-186 -115q-36 -27 -60 -26q-26 0 -41.5 23t-15.5 53zM329 109q0 52 33.5 87.5t84.5 35.5q52 0 85.5 -35t33.5 -88q0 -51 -33.5 -85t-85.5 -34q-51 0 -84.5 34t-33.5 85z" />
<glyph unicode="@" horiz-adv-x="1990" d="M105 587q0 283 119.5 496.5t327 329.5t465.5 116q276 0 472.5 -113t296.5 -293.5t100 -382.5q0 -211 -63.5 -345.5t-161.5 -195.5t-208 -61q-114 0 -179 50t-74 141h-4q-54 -89 -134.5 -140t-188.5 -51q-142 0 -230.5 100t-88.5 275q0 146 57.5 275.5t161 207t236.5 77.5 q101 0 176 -48.5t99 -125.5h2l17 94q4 27 23.5 41.5t47.5 14.5q37 0 54 -22.5t10 -58.5l-88 -504q-8 -60 -8 -77q0 -73 34 -103t103 -30q60 0 122.5 48.5t105.5 157t43 280.5q0 170 -81.5 320.5t-247 244t-404.5 93.5q-219 0 -394.5 -98t-276.5 -281.5t-101 -431.5 q0 -236 92.5 -413.5t266.5 -273t413 -95.5q327 0 510 176q30 28 62 27q26 0 43.5 -19t17.5 -47q0 -34 -27 -59q-96 -96 -254 -153t-352 -57q-277 0 -483.5 114t-317.5 321.5t-111 478.5zM692 521q0 -127 60.5 -197t148.5 -70q108 0 186.5 65.5t119 168.5t40.5 218 q0 120 -59 183t-160 63q-103 0 -179.5 -62.5t-116.5 -162t-40 -206.5z" />
<glyph unicode="A" horiz-adv-x="1562" d="M62 66q0 17 9 35l615 1368q12 30 38.5 45t55.5 15q33 0 58.5 -16.5t39.5 -43.5l614 -1368q10 -18 10 -37q0 -32 -25.5 -53t-58.5 -21q-54 0 -76 51l-152 349h-812l-154 -349q-21 -51 -76 -51q-35 0 -60.5 22.5t-25.5 53.5zM443 536h682l-343 771z" />
<glyph unicode="B" horiz-adv-x="1449" d="M187 86v1344q0 39 24.5 62.5t65.5 23.5h519q234 0 363 -103.5t129 -292.5q0 -122 -63.5 -210.5t-177.5 -131.5q131 -34 203.5 -129t72.5 -236q0 -200 -131.5 -306.5t-372.5 -106.5h-542q-41 0 -65.5 23.5t-24.5 62.5zM361 146h441q179 0 264 65.5t85 205.5 q0 279 -349 280h-441v-551zM361 843h409q170 0 257 69t87 200q0 258 -344 258h-409v-527z" />
<glyph unicode="C" horiz-adv-x="1455" d="M131 759q0 236 85 411.5t242 269t373 93.5q143 0 271 -46t223 -133q34 -31 34 -72q0 -32 -17 -55t-41 -23q-26 0 -62 23q-109 87 -199 121.5t-205 34.5q-250 0 -384.5 -162.5t-134.5 -461.5q0 -301 134.5 -463.5t384.5 -162.5q114 0 204 35t200 120q37 24 62 24 q24 0 41 -21.5t17 -54.5q0 -43 -34 -74q-94 -86 -222.5 -132.5t-271.5 -46.5q-216 0 -373 93.5t-242 269t-85 413.5z" />
<glyph unicode="D" horiz-adv-x="1588" d="M187 86v1344q0 39 24.5 62.5t65.5 23.5h420q363 0 562 -197t199 -560t-200 -561t-561 -198h-420q-41 0 -65.5 23.5t-24.5 62.5zM363 150h323q589 0 589 609q0 606 -587 606h-2h-323v-1215z" />
<glyph unicode="E" horiz-adv-x="1250" d="M187 86v1344q0 39 24.5 62.5t65.5 23.5h805q38 0 59.5 -19.5t21.5 -53.5q0 -35 -21.5 -54t-59.5 -19h-721v-527h677q39 0 60.5 -19.5t21.5 -53.5q0 -35 -21.5 -54t-60.5 -19h-677v-551h721q38 0 59.5 -18.5t21.5 -53.5t-21.5 -54.5t-59.5 -19.5h-805q-41 0 -65.5 23.5 t-24.5 62.5z" />
<glyph unicode="F" horiz-adv-x="1197" d="M187 80v1350q0 39 24.5 62.5t65.5 23.5h783q39 0 60 -19.5t21 -55.5q0 -35 -21 -54t-60 -19h-699v-523h656q39 0 60.5 -19.5t21.5 -55.5q0 -35 -21.5 -54t-60.5 -19h-656v-617q0 -41 -22.5 -65.5t-63.5 -24.5t-64.5 24.5t-23.5 65.5z" />
<glyph unicode="G" horiz-adv-x="1556" d="M131 759q0 239 86 413t247.5 267.5t378.5 93.5q150 0 279.5 -46t217.5 -133q37 -36 37 -74q0 -30 -17.5 -53t-43.5 -23q-27 0 -60 26q-112 86 -202 119.5t-209 33.5q-256 0 -392.5 -161.5t-136.5 -462.5q0 -307 138.5 -467.5t407.5 -160.5q200 0 363 60v461h-314 q-36 0 -57 19t-21 49q0 33 21.5 51.5t56.5 18.5h403q32 0 52.5 -19.5t20.5 -54.5v-535q0 -52 -16.5 -77.5t-59.5 -41.5q-86 -37 -208 -58t-245 -21q-226 0 -389 92.5t-250.5 267t-87.5 416.5z" />
<glyph unicode="H" horiz-adv-x="1629" d="M187 80v1356q0 41 22.5 66t63.5 25t64.5 -25t23.5 -66v-591h907v591q0 41 24 66t65 25t63.5 -25t22.5 -66v-1356q0 -41 -22.5 -65.5t-63.5 -24.5t-65 24.5t-24 65.5v615h-907v-615q0 -41 -23.5 -65.5t-64.5 -24.5t-63.5 24.5t-22.5 65.5z" />
<glyph unicode="I" horiz-adv-x="550" d="M187 80v1356q0 41 23.5 66t64.5 25t64.5 -25t23.5 -66v-1356q0 -41 -23.5 -65.5t-64.5 -24.5t-64.5 24.5t-23.5 65.5z" />
<glyph unicode="J" horiz-adv-x="700" d="M-24 62q0 71 80 73l65 5q109 6 163 67.5t54 196.5v1032q0 41 26 66t62 25q41 0 64 -25t23 -66v-1034q0 -197 -90 -297.5t-273 -110.5l-64 -4q-11 -1 -21 -1q-38 0 -61 15q-28 20 -28 58z" />
<glyph unicode="K" horiz-adv-x="1350" d="M187 80v1356q0 41 23.5 66t64.5 25t64.5 -25t23.5 -66v-617l768 683q24 24 55 23q33 0 56.5 -25t23.5 -55q0 -33 -27 -60l-695 -611l734 -641q29 -27 29 -62q0 -30 -24.5 -54.5t-57.5 -24.5q-28 0 -57 25l-805 703v-640q0 -41 -23.5 -65.5t-64.5 -24.5t-64.5 24.5 t-23.5 65.5z" />
<glyph unicode="L" horiz-adv-x="1160" d="M187 82v1354q0 41 23.5 66t64.5 25t64.5 -25t23.5 -66v-1286h695q39 0 60 -19.5t21 -54.5q0 -37 -21.5 -56.5t-59.5 -19.5h-785q-37 0 -61.5 22.5t-24.5 59.5z" />
<glyph unicode="M" horiz-adv-x="1808" d="M187 76v1360q0 41 23.5 66t64.5 25q54 0 86 -62l546 -1048l540 1048q17 34 38 48t48 14q41 0 63.5 -25t22.5 -66v-1360q0 -39 -21.5 -62.5t-60.5 -23.5t-57.5 23.5t-18.5 62.5v1098l-468 -895q-30 -62 -88 -62q-56 0 -88 62l-468 884v-1087q0 -39 -20.5 -62.5 t-59.5 -23.5t-60.5 23.5t-21.5 62.5z" />
<glyph unicode="N" horiz-adv-x="1588" d="M187 80v1356q0 41 22.5 66t63.5 25q43 0 73 -37l891 -1193v1139q0 41 22.5 66t60.5 25q39 0 60.5 -25t21.5 -66v-1356q0 -41 -22.5 -65.5t-63.5 -24.5t-71 36l-892 1193v-1139q0 -41 -22.5 -65.5t-61.5 -24.5t-60.5 24.5t-21.5 65.5z" />
<glyph unicode="O" horiz-adv-x="1642" d="M131 757q0 238 83 413.5t239 269t368 93.5q213 0 369 -93.5t239 -269t83 -411.5t-84 -411.5t-240 -270t-367 -94.5q-210 0 -366 94.5t-240 269t-84 410.5zM312 759q0 -299 134.5 -462.5t374.5 -163.5q242 0 376 162.5t134 463.5t-133 462.5t-377 161.5 q-240 0 -374.5 -162.5t-134.5 -461.5z" />
<glyph unicode="P" horiz-adv-x="1386" d="M187 80v1350q0 39 24.5 62.5t65.5 23.5h511q238 0 370 -116t132 -329t-133 -331t-369 -118h-425v-542q0 -41 -23.5 -65.5t-64.5 -24.5t-64.5 24.5t-23.5 65.5zM363 768h407q346 0 346 303q0 299 -346 299h-407v-602z" />
<glyph unicode="Q" horiz-adv-x="1642" d="M131 757q0 238 83 413.5t239 269t368 93.5q211 0 367 -93.5t240 -269t84 -411.5q0 -275 -111 -465.5t-315 -265.5q47 -14 83.5 -50t75.5 -99l97 -158q15 -24 15 -50q0 -30 -24 -49.5t-55 -19.5q-56 0 -92 56l-123 204q-78 121 -242 121q-211 0 -366.5 94.5t-239.5 269 t-84 410.5zM312 759q0 -299 134.5 -462.5t374.5 -163.5q241 0 375.5 162.5t134.5 463.5t-133 462.5t-377 161.5q-240 0 -374.5 -162.5t-134.5 -461.5z" />
<glyph unicode="R" horiz-adv-x="1474" d="M187 80v1350q0 39 24.5 62.5t65.5 23.5h534q247 0 377 -109.5t130 -322.5q0 -181 -104 -290.5t-298 -133.5q53 -16 96.5 -55t86.5 -108l245 -388q15 -23 15 -49q0 -33 -25 -53t-56 -20q-50 0 -78 43l-289 456q-55 88 -115.5 121t-163.5 33h-271v-560q0 -41 -23.5 -65.5 t-62.5 -24.5q-41 0 -64.5 24.5t-23.5 65.5zM361 788h435q176 0 263.5 72.5t87.5 221.5q0 145 -86.5 216.5t-264.5 71.5h-435v-582z" />
<glyph unicode="S" horiz-adv-x="1326" d="M94 236q0 31 17.5 53.5t40.5 22.5q29 0 61 -24q200 -155 456 -155q185 0 283.5 71t98.5 202q0 76 -47 122t-124.5 74t-208.5 58q-176 41 -289 86.5t-183 129t-70 218.5q0 129 70 229.5t196 155t286 54.5q151 0 281 -46t218 -133q35 -34 35 -74q0 -30 -17.5 -53t-40.5 -23 q-24 0 -63 23q-105 87 -195.5 121.5t-217.5 34.5q-178 0 -276.5 -74t-98.5 -208q0 -114 87 -171t267 -99q196 -48 307.5 -87.5t185.5 -119.5t74 -213q0 -127 -69.5 -224t-196 -150.5t-290.5 -53.5q-162 0 -309 48.5t-235 130.5q-33 30 -33 74z" />
<glyph unicode="T" horiz-adv-x="1285" d="M8 1441q0 36 21.5 55.5t60.5 19.5h1104q39 0 60 -19.5t21 -55.5q0 -37 -21 -56.5t-60 -19.5h-463v-1285q0 -41 -23.5 -65.5t-64.5 -24.5t-66 24.5t-25 65.5v1285h-462q-39 0 -60.5 19.5t-21.5 56.5z" />
<glyph unicode="U" horiz-adv-x="1556" d="M176 593v843q0 41 24 66t65 25q38 0 62 -25t24 -66v-857q0 -222 108.5 -334t318.5 -112q211 0 318.5 112t107.5 334v857q0 41 25 66t64 25q41 0 64.5 -25t23.5 -66v-843q0 -299 -154 -454.5t-449 -155.5q-296 0 -449 155t-153 455z" />
<glyph unicode="V" horiz-adv-x="1485" d="M26 1451q0 35 28 57.5t63 22.5q51 0 74 -49l556 -1254l552 1254q10 24 30.5 36.5t44.5 12.5q35 0 62 -22.5t27 -55.5q0 -17 -10 -33l-616 -1373q-13 -28 -39 -42.5t-56 -14.5t-56 14.5t-39 42.5l-614 1373q-7 16 -7 31z" />
<glyph unicode="W" horiz-adv-x="2366" d="M80 1451q0 35 26.5 56.5t61.5 21.5q26 0 48 -13.5t32 -42.5l423 -1221l430 1209q11 32 34.5 48t50.5 16q29 0 52.5 -17.5t34.5 -49.5l424 -1210l427 1225q10 29 31.5 42.5t46.5 13.5q34 0 59 -20.5t25 -55.5q0 -15 -6 -33l-487 -1371q-10 -30 -36 -46t-58 -16 q-31 0 -56.5 16t-36.5 46l-422 1192l-425 -1192q-10 -30 -36 -46t-56 -16q-31 0 -56.5 16t-36.5 46l-488 1371q-6 16 -6 31z" />
<glyph unicode="X" horiz-adv-x="1389" d="M56 74q0 32 20 53l515 647l-488 615q-21 24 -21 56t24.5 56t57.5 24q37 0 62 -33l469 -593l466 593q27 33 62 33q33 0 58.5 -25t25.5 -59q0 -31 -19 -52l-490 -615l513 -647q23 -23 23 -53q0 -35 -26 -58.5t-61 -23.5q-34 0 -63 29l-489 626l-492 -626q-24 -29 -61 -29 h-2q-33 0 -58.5 24.5t-25.5 57.5z" />
<glyph unicode="Y" horiz-adv-x="1291" d="M13 1443q0 34 24.5 58t56.5 24q37 0 64 -33l489 -626l488 626q26 33 63 33q30 0 53.5 -24t23.5 -58q0 -33 -19 -54l-523 -660v-649q0 -43 -24.5 -66.5t-63.5 -23.5t-64 23.5t-25 66.5v651l-521 658q-21 24 -22 54z" />
<glyph unicode="Z" horiz-adv-x="1268" d="M80 76q0 32 23 66l861 1226h-800q-39 0 -60.5 19t-21.5 54q0 36 21.5 55.5t60.5 19.5h937q39 0 61 -21.5t22 -53.5q0 -31 -23 -64l-862 -1229h826q38 0 59.5 -19.5t21.5 -52.5q0 -37 -21.5 -56.5t-59.5 -19.5h-961q-39 0 -61.5 21.5t-22.5 54.5z" />
<glyph unicode="[" horiz-adv-x="675" d="M234 -168v1465q0 105 56 162t162 57h148q34 0 54.5 -17t20.5 -52q0 -33 -20.5 -50.5t-54.5 -17.5h-101q-93 0 -93 -97v-1434q0 -97 93 -98h101q34 0 54.5 -18t20.5 -50q0 -35 -20.5 -52t-54.5 -17h-148q-106 0 -162 57t-56 162z" />
<glyph unicode="\" horiz-adv-x="605" d="M-26 1539q0 33 22.5 54.5t52.5 21.5q52 0 72 -58l509 -1587q4 -21 4 -30q0 -32 -22.5 -53.5t-52.5 -21.5q-25 0 -44.5 14t-28.5 43l-507 1588q-5 10 -5 29z" />
<glyph unicode="]" horiz-adv-x="675" d="M0 -318q0 32 20.5 50t55.5 18h98q95 0 95 98v1434q0 97 -95 97h-98q-35 0 -55.5 18t-20.5 50q0 35 20.5 52t55.5 17h148q105 0 161 -57t56 -162v-1465q0 -105 -56 -162t-161 -57h-148q-35 0 -55.5 17t-20.5 52z" />
<glyph unicode="^" d="M142 370q0 18 8 36l400 884q13 29 38 45.5t57 16.5q30 0 56 -17t39 -45l399 -884q10 -18 10 -36q0 -31 -20.5 -49t-49.5 -18q-36 0 -51 35l-383 848l-383 -848q-12 -35 -51 -35q-26 0 -47.5 18.5t-21.5 48.5z" />
<glyph unicode="_" horiz-adv-x="1075" d="M0 -58q0 24 19.5 41t51.5 17h933q32 0 51.5 -17.5t19.5 -40.5q0 -24 -19.5 -40t-51.5 -16h-933q-32 0 -51.5 16t-19.5 40z" />
<glyph unicode="`" horiz-adv-x="644" d="M-63 1551q0 35 24 57t58 22q50 0 88 -50l250 -326q13 -15 13 -33q0 -19 -15.5 -33t-33.5 -14q-19 0 -35 12l-306 283q-43 41 -43 82z" />
<glyph unicode="a" horiz-adv-x="1139" d="M125 301q0 119 60 184t198 94.5t382 29.5h48v70q0 129 -52.5 189.5t-171.5 60.5q-146 0 -296 -80q-58 -36 -82 -36q-26 0 -43.5 19.5t-17.5 49.5t18.5 52.5t59.5 46.5q75 43 171 67.5t190 24.5q394 0 394 -413v-584q0 -39 -22.5 -62.5t-61.5 -23.5t-62.5 23.5t-23.5 62.5 v102q-41 -92 -125 -142.5t-193 -50.5q-101 0 -186 40.5t-134.5 114t-49.5 161.5zM303 316q0 -84 61.5 -138.5t154.5 -54.5q128 0 211 87t83 225v62h-39q-189 0 -288 -16.5t-141 -53.5t-42 -111z" />
<glyph unicode="b" horiz-adv-x="1250" d="M162 76v1367q0 36 23.5 60t64.5 24t63 -22.5t22 -61.5v-577q47 99 139 153t214 54q137 0 242.5 -66.5t164 -189t58.5 -284.5q0 -163 -58.5 -286.5t-164 -192.5t-242.5 -69q-123 0 -214 53.5t-139 152.5v-115q0 -39 -22.5 -62.5t-62.5 -23.5q-41 0 -64.5 23.5t-23.5 62.5z M335 529q0 -191 83 -295.5t236 -104.5q152 0 236 106.5t84 297.5q0 187 -84 290.5t-236 103.5t-235.5 -103.5t-83.5 -294.5z" />
<glyph unicode="c" horiz-adv-x="1029" d="M99 525q0 162 63.5 286.5t177.5 193t262 68.5q82 0 162.5 -22.5t140.5 -65.5q39 -26 55 -51t16 -54q0 -31 -16 -50t-42 -19q-15 0 -32.5 8t-29 17t-15.5 11q-56 37 -106.5 58.5t-123.5 21.5q-157 0 -244.5 -106.5t-87.5 -295.5t87.5 -292.5t244.5 -103.5q74 0 126.5 21.5 t105.5 58.5q24 15 45 25.5t37 10.5q24 0 40 -19t16 -50q0 -28 -15.5 -50.5t-56.5 -49.5q-60 -41 -145 -66t-171 -25q-146 0 -258.5 67t-174 189t-61.5 284z" />
<glyph unicode="d" horiz-adv-x="1250" d="M99 533q0 162 58 284.5t163.5 189t243.5 66.5q123 0 213.5 -53.5t138.5 -153.5v577q0 39 22.5 61.5t63.5 22.5t64.5 -24t23.5 -60v-1367q0 -39 -23.5 -62.5t-64.5 -23.5t-63.5 23.5t-22.5 62.5v115q-48 -99 -139 -152.5t-213 -53.5q-138 0 -243.5 69t-163.5 192.5 t-58 286.5zM275 533q0 -191 85 -297.5t237 -106.5q154 0 236.5 104.5t82.5 295.5t-82.5 294.5t-236.5 103.5q-152 0 -237 -103.5t-85 -290.5z" />
<glyph unicode="e" horiz-adv-x="1132" d="M99 527q0 162 62.5 285.5t175 192t256.5 68.5q205 0 325 -133.5t120 -360.5q0 -43 -17 -62.5t-55 -19.5h-693q19 -370 351 -370q84 0 143.5 22.5t129.5 61.5q53 32 74 32h1q23 0 40.5 -19t17.5 -50q0 -53 -76 -98q-77 -46 -162.5 -68.5t-167.5 -22.5q-243 0 -384 144 t-141 398zM277 609h609q-4 160 -79.5 244.5t-211.5 84.5q-137 0 -219.5 -86.5t-98.5 -242.5z" />
<glyph unicode="f" horiz-adv-x="704" d="M-2 976q0 33 20.5 52t57.5 19h143v39q0 193 97 304.5t277 123.5l56 4q12 1 22 1q39 0 59 -12q25 -15 25 -54q0 -62 -76 -70l-55 -4q-115 -9 -172.5 -72.5t-57.5 -190.5v-69h238q37 0 56.5 -19t19.5 -52q0 -32 -19.5 -49.5t-56.5 -17.5h-238v-833q0 -41 -25 -63.5 t-61 -22.5q-39 0 -64 22.5t-25 63.5v833h-143q-37 0 -57.5 18.5t-20.5 48.5z" />
<glyph unicode="g" horiz-adv-x="1260" d="M99 552q0 155 59 273.5t165.5 183t244.5 64.5q125 0 217.5 -53.5t139.5 -153.5v117q0 39 22.5 62.5t63.5 23.5q40 0 64 -23.5t24 -62.5v-912q0 -234 -120.5 -353.5t-356.5 -119.5q-230 0 -384 90q-76 42 -76 98q0 31 15.5 50.5t41.5 19.5q21 0 78 -30q76 -39 149 -62.5 t174 -23.5q152 0 229.5 80.5t77.5 235.5v184q-45 -100 -138.5 -153.5t-220.5 -53.5q-138 0 -244.5 64.5t-165.5 182.5t-59 272zM275 552q0 -176 87 -276t240 -100q151 0 237 100t86 276q0 175 -85 275t-238 100t-240 -100t-87 -275z" />
<glyph unicode="h" horiz-adv-x="1221" d="M162 76v1367q0 36 24.5 60t63.5 24q41 0 63 -22.5t22 -61.5v-563q51 94 144 143.5t211 49.5q186 0 280.5 -104.5t94.5 -310.5v-582q0 -41 -24 -63.5t-62 -22.5q-41 0 -65 22.5t-24 63.5v578q0 140 -57 206.5t-181 66.5q-144 0 -230.5 -88t-86.5 -239v-524 q0 -41 -22.5 -63.5t-62.5 -22.5q-41 0 -64.5 22.5t-23.5 63.5z" />
<glyph unicode="i" horiz-adv-x="498" d="M133 1404q0 47 32.5 77.5t84.5 30.5q51 0 83 -30.5t32 -77.5q0 -50 -32 -79.5t-83 -29.5q-52 0 -84.5 29.5t-32.5 79.5zM162 76v907q0 41 24.5 63.5t63.5 22.5t62 -22.5t23 -63.5v-907q0 -43 -23.5 -64.5t-61.5 -21.5q-39 0 -63.5 22.5t-24.5 63.5z" />
<glyph unicode="j" horiz-adv-x="498" d="M-164 -322q0 57 76 66l60 4q96 6 143 58t47 170v1007q0 41 24.5 63.5t63.5 22.5t62 -22.5t23 -63.5v-996q0 -180 -80.5 -270.5t-250.5 -103.5l-60 -5q-9 -1 -18 -1q-40 0 -62 15q-28 19 -28 56zM133 1404q0 47 32.5 77.5t84.5 30.5q51 0 83 -30.5t32 -77.5 q0 -50 -32 -79.5t-83 -29.5q-52 0 -84.5 29.5t-32.5 79.5z" />
<glyph unicode="k" horiz-adv-x="1075" d="M162 76v1365q0 41 24.5 63.5t63.5 22.5q37 0 61 -22.5t24 -63.5v-873l514 470q27 27 58 27q33 0 56.5 -24t23.5 -56q0 -37 -30 -64l-424 -379l465 -404q34 -32 34 -69q0 -32 -22.5 -55.5t-55.5 -23.5q-28 0 -57 25l-562 484v-423q0 -41 -24.5 -63.5t-60.5 -22.5 q-39 0 -63.5 22.5t-24.5 63.5z" />
<glyph unicode="l" horiz-adv-x="498" d="M162 76v1365q0 41 24.5 63.5t63.5 22.5q37 0 61 -22.5t24 -63.5v-1365q0 -41 -24.5 -63.5t-60.5 -22.5q-39 0 -63.5 22.5t-24.5 63.5z" />
<glyph unicode="m" horiz-adv-x="1831" d="M162 76v907q0 39 24.5 62.5t63.5 23.5q37 0 60 -22.5t23 -61.5v-103q47 92 131 141.5t194 49.5q245 0 321 -207q45 95 137.5 151t210.5 56q348 0 348 -415v-582q0 -41 -23.5 -63.5t-62.5 -22.5t-63 22.5t-24 63.5v578q0 144 -52 208.5t-162 64.5q-131 0 -206.5 -88 t-75.5 -239v-524q0 -41 -24.5 -63.5t-63.5 -22.5t-62 22.5t-23 63.5v578q0 144 -52 208.5t-164 64.5q-129 0 -205.5 -88t-76.5 -239v-524q0 -41 -23.5 -63.5t-61.5 -22.5q-39 0 -63.5 22.5t-24.5 63.5z" />
<glyph unicode="n" horiz-adv-x="1221" d="M162 76v907q0 39 23.5 62.5t64.5 23.5q39 0 61 -23.5t22 -60.5v-109q51 96 144 146.5t211 50.5q377 0 377 -415v-582q0 -41 -22.5 -63.5t-63.5 -22.5t-65 22.5t-24 63.5v571q0 146 -57 213t-181 67q-144 0 -230.5 -88t-86.5 -239v-524q0 -41 -22.5 -63.5t-62.5 -22.5 q-41 0 -64.5 22.5t-23.5 63.5z" />
<glyph unicode="o" horiz-adv-x="1192" d="M99 529q0 164 61.5 287.5t174 190t260.5 66.5t262.5 -66.5t175.5 -190.5t61 -287q0 -164 -61 -287t-175 -190t-263 -67q-148 0 -260.5 67t-174 190t-61.5 287zM275 529q0 -193 83 -296.5t237 -103.5q156 0 238.5 102t82.5 298q0 191 -83.5 295.5t-237.5 104.5 q-152 0 -236 -104.5t-84 -295.5z" />
<glyph unicode="p" horiz-adv-x="1250" d="M162 -314v1297q0 39 23.5 62.5t64.5 23.5t63 -23.5t22 -62.5v-117q47 99 139 153t214 54q137 0 242.5 -68.5t164 -192.5t58.5 -287q0 -164 -58.5 -285t-163 -188t-243.5 -67q-123 0 -214 53.5t-139 152.5v-505q0 -39 -22.5 -61.5t-62.5 -22.5q-41 0 -64.5 23.5 t-23.5 60.5zM335 529q0 -191 83 -295.5t236 -104.5q152 0 236 103t84 293q0 189 -84 295.5t-236 106.5t-235.5 -103.5t-83.5 -294.5z" />
<glyph unicode="q" horiz-adv-x="1250" d="M99 525q0 164 58 287.5t163.5 192t243.5 68.5q123 0 213.5 -53.5t138.5 -153.5v117q0 39 22.5 62.5t63.5 23.5t64.5 -23.5t23.5 -62.5v-1297q0 -37 -23.5 -60.5t-64.5 -23.5t-63.5 22.5t-22.5 61.5v505q-48 -99 -139 -152.5t-213 -53.5q-140 0 -244.5 67t-162.5 188 t-58 285zM275 525q0 -189 85 -292.5t237 -103.5q154 0 236.5 104.5t82.5 295.5t-82.5 294.5t-236.5 103.5q-152 0 -237 -106.5t-85 -295.5z" />
<glyph unicode="r" horiz-adv-x="758" d="M162 76v907q0 41 25.5 63.5t62.5 22.5q35 0 58 -22.5t23 -61.5v-121q45 95 128 144.5t190 58.5l30 2h12q79 0 79 -74q0 -34 -19.5 -54t-66.5 -25l-64 -7q-144 -12 -214.5 -101.5t-70.5 -210.5v-521q0 -43 -23.5 -64.5t-61.5 -21.5q-39 0 -63.5 22.5t-24.5 63.5z" />
<glyph unicode="s" horiz-adv-x="1032" d="M97 178q0 29 16 47t41 18q27 0 76 -32q64 -39 127.5 -61.5t159.5 -22.5q116 0 180 41t64 118q0 47 -23.5 76.5t-82 52t-169.5 45.5q-189 41 -271 109.5t-82 187.5q0 92 51.5 163t143 112t208.5 41q84 0 162 -22.5t139 -63.5q72 -50 72 -105q0 -29 -16.5 -49t-40.5 -20 q-27 0 -78 36q-60 39 -113.5 60.5t-133.5 21.5q-101 0 -162.5 -45t-61.5 -121q0 -47 23 -76t75.5 -51.5t150.5 -44.5q146 -32 227 -70.5t115.5 -94.5t34.5 -142q0 -136 -114 -218.5t-302 -82.5q-98 0 -187.5 24t-157.5 67q-39 26 -55 48t-16 54z" />
<glyph unicode="t" horiz-adv-x="730" d="M-2 976q0 33 20.5 52t57.5 19h143v243q0 41 24 64t65 23q38 0 62 -23t24 -64v-243h238q35 0 55.5 -19t20.5 -52q0 -30 -20.5 -48.5t-55.5 -18.5h-238v-548q0 -118 48 -170.5t145 -59.5l58 -4q75 -7 75 -69q0 -37 -26 -55q-21 -14 -59 -14q-10 0 -22 1l-59 4 q-172 12 -253.5 102.5t-81.5 273.5v539h-143q-37 0 -57.5 18.5t-20.5 48.5z" />
<glyph unicode="u" horiz-adv-x="1205" d="M158 398v585q0 39 23.5 62.5t63.5 23.5q41 0 63.5 -23.5t22.5 -62.5v-581q0 -140 56 -205.5t177 -65.5q137 0 220.5 89.5t83.5 235.5v527q0 39 24 62.5t65 23.5t63.5 -23.5t22.5 -62.5v-909q0 -37 -22.5 -60.5t-63.5 -23.5q-39 0 -61.5 22.5t-22.5 58.5v107 q-50 -94 -139 -143.5t-201 -49.5q-187 0 -281 104t-94 309z" />
<glyph unicode="v" horiz-adv-x="1104" d="M33 989q0 33 28.5 56.5t63.5 23.5q21 0 41.5 -13t30.5 -36l359 -807l360 802q24 52 75 52q33 0 58.5 -21.5t25.5 -54.5q0 -19 -8 -34l-420 -903q-13 -29 -38.5 -44.5t-56.5 -15.5q-28 0 -53 16t-41 44l-417 903q-8 14 -8 32z" />
<glyph unicode="w" horiz-adv-x="1810" d="M62 985q0 35 29.5 58.5t62.5 23.5q52 0 74 -52l295 -793l302 787q13 28 36 43t48 15q29 0 51.5 -15.5t32.5 -42.5l304 -785l297 789q21 52 70 52q33 0 58.5 -21.5t25.5 -54.5q0 -15 -6 -32l-357 -903q-13 -29 -37.5 -44.5t-54.5 -15.5q-29 0 -53.5 16t-37.5 44l-297 754 l-294 -754q-10 -29 -36.5 -44.5t-55.5 -15.5t-54.5 16t-38.5 44l-357 900q-6 17 -7 31z" />
<glyph unicode="x" horiz-adv-x="1113" d="M66 74q0 32 26 59l357 403l-342 389q-25 30 -25 58q0 37 24.5 60.5t55.5 23.5q34 0 62 -31l332 -382l334 382q29 31 62 31t56.5 -23.5t23.5 -56.5q0 -37 -26 -62l-341 -389l357 -403q25 -25 25 -62q0 -32 -23.5 -55.5t-55.5 -23.5q-35 0 -63 29l-349 398l-345 -398 q-27 -29 -61 -29h-2q-32 0 -57 23.5t-25 58.5z" />
<glyph unicode="y" horiz-adv-x="1104" d="M33 989q0 33 28.5 56.5t63.5 23.5q21 0 41.5 -13t30.5 -36l359 -807l360 802q24 52 75 52q33 0 58.5 -21.5t25.5 -54.5q0 -19 -8 -34l-605 -1303q-10 -25 -30.5 -37.5t-41.5 -12.5q-33 0 -57.5 20.5t-24.5 53.5q0 16 8 34l150 325l-425 920q-8 14 -8 32z" />
<glyph unicode="z" horiz-adv-x="1081" d="M90 976q0 33 20.5 52t57.5 19h729q39 0 62.5 -22.5t23.5 -54.5q0 -34 -26 -67l-639 -765h613q37 0 56 -18.5t19 -50.5t-19 -50.5t-56 -18.5h-753q-36 0 -60 22.5t-24 55.5q0 34 27 66l636 765h-589q-37 0 -57.5 18.5t-20.5 48.5z" />
<glyph unicode="{" horiz-adv-x="753" d="M88 566q0 30 19.5 49t56.5 21q84 4 117 44t33 128v489q0 105 56 162t161 57h148q35 0 55.5 -17t20.5 -52q0 -33 -20.5 -50.5t-55.5 -17.5h-100q-93 0 -93 -97v-490q0 -95 -46 -153t-111 -73q64 -15 110.5 -73t46.5 -153v-492q0 -97 93 -98h100q35 0 55.5 -18t20.5 -50 q0 -35 -20.5 -52t-55.5 -17h-148q-105 0 -161 57t-56 162v488q0 88 -33 129t-117 46q-37 2 -56.5 21.5t-19.5 49.5z" />
<glyph unicode="|" horiz-adv-x="560" d="M197 -312v1753q0 36 24 61t60 25q35 0 58.5 -25t23.5 -61v-1753q0 -37 -23.5 -61.5t-58.5 -24.5q-36 0 -60 24.5t-24 61.5z" />
<glyph unicode="}" horiz-adv-x="753" d="M0 -318q0 32 20.5 50t55.5 18h98q95 0 95 98v492q0 95 46 152.5t111 73.5q-64 15 -110.5 73t-46.5 153v490q0 97 -95 97h-98q-35 0 -55.5 18t-20.5 50q0 35 20.5 52t55.5 17h148q105 0 161 -57t56 -162v-489q0 -88 33 -128t117 -44q37 -2 56.5 -21.5t19.5 -48.5 q0 -30 -19.5 -49.5t-56.5 -21.5q-84 -5 -116 -44.5t-32 -130.5l-2 -488q0 -105 -56 -162t-161 -57h-148q-35 0 -55.5 17t-20.5 52z" />
<glyph unicode="~" d="M138 574q0 15 10 37q43 74 106.5 112t143.5 38q69 0 131 -24.5t157 -71.5q66 -37 111.5 -55.5t84.5 -18.5q92 0 148 82q30 37 60 37q17 0 32 -9q29 -12 29 -49q0 -21 -12 -39q-88 -150 -247 -151q-69 0 -133 25.5t-155 74.5q-66 36 -111.5 54t-84.5 18q-90 0 -148 -84 q-30 -37 -63 -37q-14 0 -29 10q-30 19 -30 51z" />
<glyph unicode="&#xa1;" horiz-adv-x="491" d="M127 946q0 54 34 88.5t84 34.5q51 0 84.5 -34.5t33.5 -88.5t-33 -87.5t-85 -33.5q-50 0 -84 35t-34 86zM144 -290l49 903q2 29 17.5 43.5t37.5 14.5q21 0 36 -16.5t17 -41.5l48 -903q4 -49 -25 -78.5t-76 -29.5q-48 0 -78 29t-26 79z" />
<glyph unicode="&#xa2;" d="M195 525q0 217 111 362t298 178v170q0 37 20.5 58t54.5 21q35 0 55.5 -22t20.5 -57v-164q150 -15 249 -86q39 -26 55 -51t16 -54q0 -31 -16 -50t-42 -19q-14 0 -31.5 8t-29.5 17t-16 11q-56 37 -107 58.5t-123 21.5q-158 0 -245 -106.5t-87 -295.5t87 -292.5t245 -103.5 q73 0 125.5 21.5t106.5 58.5q24 15 45.5 25.5t36.5 10.5q23 0 39 -19t16 -50q0 -28 -15 -49.5t-55 -50.5q-49 -35 -116.5 -57.5t-137.5 -28.5v-168q0 -37 -20.5 -58.5t-55.5 -21.5q-34 0 -54.5 21.5t-20.5 58.5v170q-187 30 -298 173t-111 360z" />
<glyph unicode="&#xa3;" d="M86 76q0 34 21.5 53t60.5 19h146v549h-164q-28 0 -46 17t-18 45q0 29 18.5 45.5t45.5 16.5h164v299q0 189 111 301t306 112q129 0 247 -47.5t208 -131.5q35 -32 35 -74q0 -30 -17.5 -53t-40.5 -23q-26 0 -59 23q-105 87 -191 122.5t-178 35.5q-111 0 -178 -67.5 t-67 -209.5v-287h341q28 0 46 -16.5t18 -45.5q0 -28 -18.5 -45t-45.5 -17h-341v-549h649q39 0 60.5 -19.5t21.5 -52.5q0 -37 -21.5 -56.5t-60.5 -19.5h-971q-39 0 -60.5 19.5t-21.5 56.5z" />
<glyph unicode="&#xa4;" d="M185 131q0 19 18 37l90 88q-97 117 -98 282q0 157 93 275l-81 86q-21 19 -22 45q0 21 16 36t39 15q19 0 41 -21l84 -84q115 86 280 86q166 0 282 -86l84 84q21 21 43 21q21 0 37.5 -15.5t16.5 -37.5q0 -24 -20 -43l-86 -86q45 -58 69.5 -129t24.5 -146q0 -160 -96 -282 l86 -82q21 -24 22 -49q-2 -24 -20.5 -37.5t-40.5 -13.5q-19 0 -36 20l-88 87q-107 -82 -278 -82q-160 0 -277 79l-84 -81q-25 -25 -48 -23q-21 0 -36 16.5t-15 40.5zM324 538q0 -86 38 -161.5t110 -121.5t173 -46q102 0 173.5 46t109.5 121.5t38 161.5q0 84 -37 160 t-109.5 123t-174.5 47q-101 0 -173 -47t-110 -123t-38 -160z" />
<glyph unicode="&#xa5;" d="M28 1447q0 32 25 56t56 24q37 0 61 -33l475 -608l475 606q26 33 62 33q33 0 56.5 -24t23.5 -58q0 -31 -21 -54l-443 -562h288q28 0 46.5 -16.5t18.5 -45.5q0 -28 -17.5 -46t-47.5 -18h-353v-198h353q30 0 47.5 -17.5t17.5 -46.5q0 -28 -18.5 -45.5t-46.5 -17.5h-353v-296 q0 -43 -24.5 -66.5t-63.5 -23.5t-64 23.5t-25 66.5v296h-351q-29 0 -47 17.5t-18 45.5q0 30 18 47t47 17h351v198h-351q-29 0 -47 18t-18 46q0 29 18 45.5t47 16.5h287l-443 564q-21 24 -21 56z" />
<glyph unicode="&#xa6;" horiz-adv-x="560" d="M197 256q0 37 24 61.5t60 24.5q35 0 58.5 -24.5t23.5 -61.5v-568q0 -37 -23.5 -61.5t-58.5 -24.5q-36 0 -60 24.5t-24 61.5v568zM197 873v568q0 36 24 61t60 25q35 0 58.5 -25t23.5 -61v-568q0 -37 -23.5 -61t-58.5 -24q-36 0 -60 24.5t-24 60.5z" />
<glyph unicode="&#xa7;" horiz-adv-x="1153" d="M88 714q0 78 33 151t90 124q-37 66 -37 166q0 172 115 274t308 102q192 0 312 -86q74 -50 74 -105q0 -29 -17.5 -49.5t-40.5 -20.5q-26 0 -78 37q-59 39 -113.5 60.5t-136.5 21.5q-120 0 -185.5 -58t-65.5 -168q0 -86 44.5 -142.5t149.5 -111.5l207 -103 q172 -86 246 -176t74 -215q0 -75 -33.5 -146.5t-91.5 -124.5q39 -69 39 -170q0 -172 -113 -274t-309 -102q-218 0 -356 92q-39 26 -55.5 49t-16.5 52q0 28 17.5 47.5t40.5 19.5q26 0 76 -32q69 -39 134 -62.5t165 -23.5q118 0 181 59t63 166q0 86 -44 144.5t-149 112.5 l-207 100q-174 84 -247 174.5t-73 217.5zM252 729q0 -76 51.5 -133.5t176.5 -124.5l199 -103q107 -56 177 -116q45 64 45 148q0 76 -51.5 134.5t-174.5 123.5l-199 105q-115 60 -177 115q-47 -66 -47 -149z" />
<glyph unicode="&#xa8;" horiz-adv-x="644" d="M32 1404q0 45 30.5 73.5t75.5 28.5t76 -28.5t31 -73.5q0 -47 -30 -75t-77 -28q-45 0 -75.5 29t-30.5 74zM400 1404q0 45 31 73.5t76 28.5q46 0 75.5 -28.5t29.5 -73.5t-29.5 -74t-75.5 -29q-45 0 -76 29t-31 74z" />
<glyph unicode="&#xa9;" horiz-adv-x="1752" d="M107 759q0 215 101.5 390.5t278 276.5t391.5 101t390 -101t276 -276.5t101 -390.5t-101 -390.5t-277.5 -277t-388.5 -101.5q-215 0 -391.5 101.5t-278 277t-101.5 390.5zM209 759q0 -187 87 -342t239.5 -243t342.5 -88q187 0 339.5 88t239.5 243t87 342t-87 341 t-239.5 242t-339.5 88q-189 0 -342 -88t-240 -242t-87 -341zM458 759q0 213 118.5 337.5t315.5 124.5q164 0 288 -96q31 -21 31 -60q0 -27 -14.5 -47t-39.5 -20q-19 0 -49 17q-62 39 -105.5 57t-103.5 18q-134 0 -203.5 -84.5t-69.5 -246.5q0 -164 69.5 -248.5t203.5 -84.5 q60 0 103 18t106 57q30 17 49 18q26 0 40 -20.5t14 -46.5q0 -37 -31 -60q-109 -97 -288 -97q-197 0 -315.5 124.5t-118.5 339.5z" />
<glyph unicode="&#xaa;" horiz-adv-x="708" d="M64 1067q0 69 35.5 108.5t115.5 58t222 18.5h34v36q0 66 -29 94t-89 28q-78 0 -168 -42q-35 -19 -50 -20q-24 0 -37.5 18.5t-13.5 39.5q0 41 49 67q43 24 105.5 39t122.5 15q127 0 193 -62.5t66 -200.5v-314q0 -36 -20.5 -55t-53.5 -19q-30 0 -51 19t-21 55v35 q-27 -52 -76 -80.5t-112 -28.5q-97 0 -159.5 56.5t-62.5 134.5zM211 1077q0 -39 30 -65.5t79 -26.5q65 0 108 42t43 112v31h-22q-98 0 -149.5 -9.5t-70 -29t-18.5 -54.5z" />
<glyph unicode="&#xab;" horiz-adv-x="948" d="M121 572q0 29 14 52l173 290q24 40 68 40q28 0 47.5 -16.5t19.5 -42.5q0 -17 -8 -35l-142 -290l142 -289q8 -16 8 -36q0 -27 -19.5 -43.5t-45.5 -16.5q-19 0 -37.5 11t-30.5 30l-175 293q-14 27 -14 53zM511 572q0 29 14 52l173 290q24 40 68 40q28 0 47.5 -16.5 t19.5 -42.5q0 -17 -8 -35l-142 -290l142 -289q8 -16 8 -36q0 -27 -19.5 -43.5t-45.5 -16.5q-19 0 -37.5 11t-30.5 30l-175 293q-14 27 -14 53z" />
<glyph unicode="&#xac;" d="M121 839q0 28 19.5 45t48.5 17h912q31 0 50 -19.5t19 -48.5v-441q0 -31 -20.5 -51.5t-50.5 -20.5q-26 0 -43.5 20.5t-17.5 51.5v378h-849q-28 0 -48 20.5t-20 48.5z" />
<glyph unicode="&#xad;" horiz-adv-x="913" d="M140 572q0 33 20.5 53t58.5 20h473q41 0 61.5 -20.5t20.5 -52.5t-20.5 -51.5t-61.5 -19.5h-473q-38 0 -58.5 19.5t-20.5 51.5z" />
<glyph unicode="&#xae;" horiz-adv-x="1752" d="M107 759q0 215 101.5 390.5t278 276.5t391.5 101q214 0 389.5 -101t276.5 -276.5t101 -390.5t-101 -390.5t-277.5 -277t-388.5 -101.5q-215 0 -391.5 101.5t-278 277t-101.5 390.5zM209 759q0 -187 87 -342t239.5 -243t342.5 -88q187 0 339.5 88t239.5 243t87 342 t-87 341t-239.5 242t-339.5 88q-189 0 -342 -88t-240 -242t-87 -341zM554 374v759q0 37 20.5 58.5t57.5 21.5h304q148 0 231 -70t83 -199q0 -107 -61.5 -175t-171.5 -85q37 -9 65 -32.5t57 -64.5l119 -187q17 -24 17 -43q0 -28 -24 -46t-53 -18q-47 0 -76 42l-170 260 q-26 41 -55 57.5t-78 16.5h-105v-295q0 -39 -21.5 -59t-58.5 -20t-58.5 20t-21.5 59zM714 794h202q88 0 132 34t44 112q0 80 -43 113t-133 33h-202v-292z" />
<glyph unicode="&#xaf;" horiz-adv-x="644" d="M-15 1402q0 32 20 49.5t57 17.5h521q37 0 57 -17.5t20 -49.5q0 -31 -20.5 -47.5t-56.5 -16.5h-521q-37 0 -57 17t-20 47z" />
<glyph unicode="&#xb0;" horiz-adv-x="784" d="M80 1215q0 88 42 159t113 112t159 41q86 0 157 -41t113 -112t42 -159t-42 -159t-113 -112t-157 -41q-88 0 -159 41t-113 112t-42 159zM203 1215q0 -86 53.5 -142t137.5 -56q82 0 135.5 56t53.5 142t-53.5 142t-135.5 56q-84 0 -137.5 -56t-53.5 -142z" />
<glyph unicode="&#xb1;" d="M121 704q0 28 19.5 46t48.5 18h390v299q0 30 19 50t49 20q28 0 46.5 -20.5t18.5 -49.5v-299h389q31 0 50 -19.5t19 -49.5q0 -28 -19.5 -46.5t-49.5 -18.5h-389v-296q0 -30 -20.5 -51.5t-48.5 -21.5q-29 0 -46.5 20.5t-17.5 49.5v299h-390q-27 0 -47.5 20.5t-20.5 49.5z M133 69q0 29 20.5 47.5t49.5 18.5h911q27 0 47.5 -20.5t20.5 -50.5q0 -28 -19 -46t-49 -18h-911q-29 0 -49.5 20.5t-20.5 48.5z" />
<glyph unicode="&#xb2;" horiz-adv-x="816" d="M86 1368q0 39 28 60q58 43 135.5 70t150.5 27q136 0 213 -68t77 -177q0 -78 -34 -146.5t-116 -154.5l-230 -243h353q74 -1 74 -65t-74 -64h-493q-32 0 -51.5 19.5t-19.5 44.5q0 37 30 67l292 323q56 59 83 110t27 101q0 62 -36.5 94.5t-102.5 32.5q-89 0 -201 -78 q-30 -17 -53 -17q-25 0 -38.5 20t-13.5 44z" />
<glyph unicode="&#xb3;" horiz-adv-x="816" d="M71 757q0 24 14 44.5t38 20.5q21 0 53 -20q110 -77 211 -76q82 0 127 34t45 105q0 140 -181 140h-75q-28 0 -44 18.5t-16 43.5q0 26 16 44.5t44 18.5h52q86 0 133.5 35t47.5 107q0 62 -39 94.5t-105 32.5q-91 0 -203 -78q-30 -17 -54 -17t-37.5 21.5t-13.5 44.5 q0 39 27 58q56 43 133.5 70t151.5 27q137 0 214.5 -68t77.5 -173q0 -75 -39.5 -128.5t-106.5 -80.5q80 -23 124 -78t44 -140q0 -119 -85 -188.5t-233 -69.5q-78 0 -159 27.5t-134 70.5q-29 21 -28 60z" />
<glyph unicode="&#xb4;" horiz-adv-x="644" d="M275 1221q0 17 13 33l250 326q39 50 88 50q35 0 58 -23t23 -56q0 -45 -43 -82l-303 -283q-17 -12 -34 -12q-21 0 -36.5 14t-15.5 33z" />
<glyph unicode="&#xb5;" horiz-adv-x="1205" d="M158 -314v1297q0 41 23.5 63.5t63.5 22.5q39 0 62.5 -22.5t23.5 -63.5v-581q0 -144 59 -207.5t174 -63.5q133 0 218.5 86t85.5 239v527q0 39 25 62.5t64 23.5q38 0 62 -22.5t24 -63.5v-909q0 -39 -24 -61.5t-62 -22.5q-39 0 -61.5 21.5t-22.5 59.5v107 q-50 -94 -139 -143.5t-201 -49.5q-120 0 -202 54v-353q0 -39 -23.5 -61.5t-64.5 -22.5q-39 0 -62 22.5t-23 61.5z" />
<glyph unicode="&#xb6;" horiz-adv-x="1250" d="M97 1092q0 123 53 219.5t150.5 150.5t226.5 54h464q33 0 54.5 -21.5t21.5 -51.5v-1767q0 -31 -21.5 -52.5t-52.5 -21.5q-30 0 -50 21.5t-20 52.5v1709h-256v-1709q0 -31 -20.5 -52.5t-51.5 -21.5q-29 0 -50.5 21.5t-21.5 52.5v991q-127 0 -223.5 53.5t-149.5 150.5 t-53 221z" />
<glyph unicode="&#xb7;" horiz-adv-x="491" d="M127 572q0 54 34 87t87 33q49 0 82 -33t33 -87q0 -53 -33 -88t-82 -35q-53 0 -87 35t-34 88z" />
<glyph unicode="&#xb8;" horiz-adv-x="644" d="M138 -340q0 19 12.5 33t34.5 14q11 0 17 -2q58 -17 121 -17q60 0 91 19.5t31 56.5q0 28 -17 43t-50 15q-24 0 -60 -9.5t-45 -9.5q-16 0 -30.5 11.5t-12.5 27.5l23 201h121l-15 -137q27 6 56 6q66 0 112.5 -38t46.5 -110q0 -80 -67 -129.5t-186 -49.5q-80 0 -147 25 q-17 7 -26.5 21t-9.5 29z" />
<glyph unicode="&#xb9;" horiz-adv-x="816" d="M187 1338q0 37 30 54l177 107q36 22 72 22q33 0 54.5 -20.5t21.5 -56.5v-708h94q78 -1 78 -65t-78 -64h-348q-76 0 -75 64q0 64 75 65h97v602l-104 -64q-14 -9 -31 -9q-26 0 -44.5 23t-18.5 50z" />
<glyph unicode="&#xba;" horiz-adv-x="735" d="M47 1202q0 144 85 234.5t233 90.5q151 0 237 -90.5t86 -234.5q0 -146 -85.5 -236t-237.5 -90q-148 0 -233 90t-85 236zM203 1202q0 -98 41.5 -151t120.5 -53q84 0 126 53t42 151q0 97 -43 149.5t-125 52.5q-79 0 -120.5 -52.5t-41.5 -149.5z" />
<glyph unicode="&#xbb;" horiz-adv-x="943" d="M114 897q0 26 19 41.5t48 15.5q45 0 69 -40l169 -290q17 -29 18 -52q0 -24 -18 -53l-169 -293q-26 -41 -67 -41q-29 0 -47.5 17t-18.5 43q0 19 8 36l144 289l-144 290q-11 21 -11 37zM504 897q0 26 19 41.5t48 15.5q45 0 69 -40l169 -290q17 -29 18 -52q0 -24 -18 -53 l-169 -293q-26 -41 -67 -41q-29 0 -47.5 17t-18.5 43q0 19 8 36l144 289l-144 290q-11 21 -11 37z" />
<glyph unicode="&#xbc;" horiz-adv-x="2005" d="M187 1338q0 37 30 54l177 107q36 22 72 22q33 0 54.5 -20.5t21.5 -56.5v-708h94q78 -1 78 -65t-78 -64h-348q-76 0 -75 64q0 64 75 65h97v602l-104 -64q-14 -9 -31 -9q-26 0 -44.5 23t-18.5 50zM516 35q0 24 13 49l821 1422q29 47 74 47q28 0 48 -19.5t20 -51.5 q0 -27 -15 -50l-822 -1422q-27 -47 -70 -47q-28 0 -48.5 20.5t-20.5 51.5zM1252 248q0 30 20 58l404 576q26 35 70 34q33 0 55.5 -20t22.5 -59v-536h74q70 -1 70 -63q0 -28 -18 -44t-52 -16h-74v-112q0 -37 -20.5 -55.5t-54.5 -18.5q-33 0 -53 19t-20 55v112h-353 q-32 0 -51.5 20.5t-19.5 49.5zM1409 301h267v380z" />
<glyph unicode="&#xbd;" horiz-adv-x="2005" d="M187 1338q0 37 30 54l177 107q36 22 72 22q33 0 54.5 -20.5t21.5 -56.5v-708h94q78 -1 78 -65t-78 -64h-348q-76 0 -75 64q0 64 75 65h97v602l-104 -64q-14 -9 -31 -9q-26 0 -44.5 23t-18.5 50zM516 35q0 24 13 49l821 1422q29 47 74 47q28 0 48 -19.5t20 -51.5 q0 -27 -15 -50l-822 -1422q-27 -47 -70 -47q-28 0 -48.5 20.5t-20.5 51.5zM1276 761q0 39 28 60q58 43 135.5 70t150.5 27q136 0 213 -68t77 -177q0 -78 -34 -146.5t-116 -154.5l-230 -243h353q74 -1 74 -65t-74 -64h-493q-32 0 -51.5 19.5t-19.5 44.5q0 37 30 67l292 323 q56 59 83 110t27 101q0 62 -36.5 94.5t-102.5 32.5q-89 0 -201 -78q-30 -17 -53 -17q-25 0 -38.5 20t-13.5 44z" />
<glyph unicode="&#xbe;" horiz-adv-x="2005" d="M71 757q0 24 14 44.5t38 20.5q21 0 53 -20q110 -77 211 -76q82 0 127 34t45 105q0 140 -181 140h-75q-28 0 -44 18.5t-16 43.5q0 26 16 44.5t44 18.5h52q86 0 133.5 35t47.5 107q0 62 -39 94.5t-105 32.5q-91 0 -203 -78q-30 -17 -54 -17t-37.5 21.5t-13.5 44.5 q0 39 27 58q56 43 133.5 70t151.5 27q137 0 214.5 -68t77.5 -173q0 -75 -39.5 -128.5t-106.5 -80.5q80 -23 124 -78t44 -140q0 -119 -85 -188.5t-233 -69.5q-78 0 -159 27.5t-134 70.5q-29 21 -28 60zM516 35q0 24 13 49l821 1422q29 47 74 47q28 0 48 -19.5t20 -51.5 q0 -27 -15 -50l-822 -1422q-27 -47 -70 -47q-28 0 -48.5 20.5t-20.5 51.5zM1252 248q0 30 20 58l404 576q26 35 70 34q33 0 55.5 -20t22.5 -59v-536h74q70 -1 70 -63q0 -28 -18 -44t-52 -16h-74v-112q0 -37 -20.5 -55.5t-54.5 -18.5q-33 0 -53 19t-20 55v112h-353 q-32 0 -51.5 20.5t-19.5 49.5zM1409 301h267v380z" />
<glyph unicode="&#xbf;" horiz-adv-x="952" d="M51 -74q0 78 26 139.5t63.5 105.5t104.5 108q92 91 144 164.5t63 178.5q2 21 17 35t36 14q26 0 41.5 -17.5t15.5 -46.5q0 -93 -26.5 -164t-63.5 -119.5t-98 -114.5q-74 -78 -109 -135t-35 -136q0 -88 66.5 -140t181.5 -52q96 0 177.5 38t185.5 115q35 24 60 23 q26 0 42 -21.5t16 -52.5q0 -41 -34 -74q-86 -82 -209 -129t-248 -47q-187 0 -302 90t-115 238zM387 946q0 54 33.5 88.5t84.5 34.5t85 -34.5t34 -88.5q0 -51 -34 -86t-85 -35t-84.5 35t-33.5 86z" />
<glyph unicode="&#xc0;" horiz-adv-x="1562" d="M62 66q0 17 9 35l615 1368q12 30 38.5 45t55.5 15q33 0 58.5 -16.5t39.5 -43.5l614 -1368q10 -18 10 -37q0 -32 -25.5 -53t-58.5 -21q-54 0 -76 51l-152 349h-812l-154 -349q-21 -51 -76 -51q-35 0 -60.5 22.5t-25.5 53.5zM443 536h682l-343 771zM450 1908q0 30 22.5 51 t52.5 21q39 0 76 -36l212 -232q15 -15 16 -35q0 -17 -14.5 -30t-32.5 -13q-13 0 -29 9l-251 185q-52 35 -52 80z" />
<glyph unicode="&#xc1;" horiz-adv-x="1562" d="M62 66q0 17 9 35l615 1368q12 30 38.5 45t55.5 15q33 0 58.5 -16.5t39.5 -43.5l614 -1368q10 -18 10 -37q0 -32 -25.5 -53t-58.5 -21q-54 0 -76 51l-152 349h-812l-154 -349q-21 -51 -76 -51q-35 0 -60.5 22.5t-25.5 53.5zM443 536h682l-343 771zM738 1677q0 19 15 35 l213 232q35 36 76 36q30 0 52 -21.5t22 -50.5q0 -45 -51 -80l-252 -185q-15 -9 -27 -9q-19 0 -33.5 13t-14.5 30z" />
<glyph unicode="&#xc2;" horiz-adv-x="1562" d="M62 66q0 17 9 35l615 1368q12 30 38.5 45t55.5 15q33 0 58.5 -16.5t39.5 -43.5l614 -1368q10 -18 10 -37q0 -32 -25.5 -53t-58.5 -21q-54 0 -76 51l-152 349h-812l-154 -349q-21 -51 -76 -51q-35 0 -60.5 22.5t-25.5 53.5zM443 536h682l-343 771zM489 1699q0 28 24 49 l191 198q34 34 80 34q43 0 79 -34l192 -198q24 -24 23 -51q0 -24 -19 -43.5t-43 -19.5q-29 0 -52 24l-180 203l-181 -203q-21 -24 -49 -24q-27 0 -46 19.5t-19 45.5z" />
<glyph unicode="&#xc3;" horiz-adv-x="1562" d="M62 66q0 17 9 35l615 1368q12 30 38.5 45t55.5 15q33 0 58.5 -16.5t39.5 -43.5l614 -1368q10 -18 10 -37q0 -32 -25.5 -53t-58.5 -21q-54 0 -76 51l-152 349h-812l-154 -349q-21 -51 -76 -51q-35 0 -60.5 22.5t-25.5 53.5zM443 536h682l-343 771zM443 1752q0 37 24 77 t67 67t96 27q37 0 74 -12.5t96 -35.5q48 -21 78.5 -31t55.5 -10q34 0 54.5 14.5t41.5 39.5q25 32 46 32t34 -14t13 -37q0 -37 -23.5 -77t-67 -66.5t-96.5 -26.5q-37 0 -76.5 12.5t-93.5 36.5q-47 21 -77 31t-57 10q-36 0 -56 -15t-40 -40q-24 -33 -45 -33t-34.5 14t-13.5 37 z" />
<glyph unicode="&#xc4;" horiz-adv-x="1562" d="M62 66q0 17 9 35l615 1368q12 30 38.5 45t55.5 15q33 0 58.5 -16.5t39.5 -43.5l614 -1368q10 -18 10 -37q0 -32 -25.5 -53t-58.5 -21q-54 0 -76 51l-152 349h-812l-154 -349q-21 -51 -76 -51q-35 0 -60.5 22.5t-25.5 53.5zM443 536h682l-343 771zM493 1810 q0 45 30.5 74.5t75.5 29.5t76 -29.5t31 -74.5q0 -47 -30 -75t-77 -28q-45 0 -75.5 29t-30.5 74zM861 1810q0 45 31 74.5t76 29.5q46 0 75.5 -29.5t29.5 -74.5t-29.5 -74t-75.5 -29q-45 0 -76 29t-31 74z" />
<glyph unicode="&#xc5;" horiz-adv-x="1562" d="M62 66q0 17 9 35l617 1368q-56 26 -89 77.5t-33 115.5q0 90 63 151.5t153 61.5q91 0 154.5 -61.5t63.5 -151.5q0 -64 -33.5 -116t-88.5 -77l614 -1368q10 -18 10 -37q0 -32 -25.5 -53t-58.5 -21q-54 0 -76 51l-152 349h-812l-154 -349q-21 -51 -76 -51q-35 0 -60.5 22.5 t-25.5 53.5zM443 536h682l-343 771zM679 1662q0 -45 29 -76t74 -31t74.5 31t29.5 76t-29.5 76.5t-74.5 31.5t-74 -31.5t-29 -76.5z" />
<glyph unicode="&#xc6;" horiz-adv-x="2130" d="M26 54q0 24 15 47l845 1368q33 47 103 47h972q39 0 60.5 -19.5t21.5 -53.5q0 -37 -21.5 -56t-60.5 -19h-857l113 -525h701q39 0 60.5 -19.5t21.5 -53.5q0 -35 -21.5 -54t-60.5 -19h-671l118 -549h596q39 0 60.5 -19.5t21.5 -54.5t-21.5 -54.5t-60.5 -19.5h-656 q-35 0 -57.5 20.5t-30.5 53.5l-66 316h-749l-211 -349q-35 -54 -90 -54q-33 0 -54 18.5t-21 48.5zM492 536h626l-161 765z" />
<glyph unicode="&#xc7;" horiz-adv-x="1455" d="M131 759q0 236 85 411.5t242 269t373 93.5q143 0 271 -46t223 -133q35 -32 34 -74q0 -30 -17 -53t-41 -23q-26 0 -62 23q-109 87 -199 121.5t-205 34.5q-250 0 -384.5 -162.5t-134.5 -461.5q0 -301 134.5 -463.5t384.5 -162.5q114 0 204 35t200 120q37 24 62 24 q24 0 41 -21.5t17 -54.5q0 -43 -34 -74q-88 -80 -206.5 -126t-250.5 -53l-8 -77q26 6 56 6q66 0 112.5 -38t46.5 -110q0 -80 -66.5 -129.5t-187.5 -49.5q-80 0 -146 25q-17 7 -27 21t-10 29q0 19 13.5 33t34.5 14q10 0 18 -2q57 -17 119 -17q60 0 91.5 19.5t31.5 56.5 q0 28 -17.5 43t-48.5 15q-24 0 -61 -9.5t-45 -9.5q-17 0 -31 11.5t-12 27.5l18 145q-191 17 -330.5 115t-213.5 266t-74 391z" />
<glyph unicode="&#xc8;" horiz-adv-x="1250" d="M187 86v1344q0 39 24.5 62.5t65.5 23.5h805q38 0 59.5 -19.5t21.5 -53.5q0 -35 -21.5 -54t-59.5 -19h-721v-527h677q39 0 60.5 -19.5t21.5 -53.5q0 -35 -21.5 -54t-60.5 -19h-677v-551h721q38 0 59.5 -18.5t21.5 -53.5t-21.5 -54.5t-59.5 -19.5h-805q-41 0 -65.5 23.5 t-24.5 62.5zM364 1908q0 30 22.5 51t52.5 21q39 0 76 -36l212 -232q15 -15 16 -35q0 -17 -14.5 -30t-32.5 -13q-13 0 -29 9l-251 185q-52 35 -52 80z" />
<glyph unicode="&#xc9;" horiz-adv-x="1250" d="M187 86v1344q0 39 24.5 62.5t65.5 23.5h805q38 0 59.5 -19.5t21.5 -53.5q0 -35 -21.5 -54t-59.5 -19h-721v-527h677q39 0 60.5 -19.5t21.5 -53.5q0 -35 -21.5 -54t-60.5 -19h-677v-551h721q38 0 59.5 -18.5t21.5 -53.5t-21.5 -54.5t-59.5 -19.5h-805q-41 0 -65.5 23.5 t-24.5 62.5zM652 1677q0 19 15 35l213 232q35 36 76 36q30 0 52 -21.5t22 -50.5q0 -45 -51 -80l-252 -185q-15 -9 -27 -9q-19 0 -33.5 13t-14.5 30z" />
<glyph unicode="&#xca;" horiz-adv-x="1250" d="M187 86v1344q0 39 24.5 62.5t65.5 23.5h805q38 0 59.5 -19.5t21.5 -53.5q0 -35 -21.5 -54t-59.5 -19h-721v-527h677q39 0 60.5 -19.5t21.5 -53.5q0 -35 -21.5 -54t-60.5 -19h-677v-551h721q38 0 59.5 -18.5t21.5 -53.5t-21.5 -54.5t-59.5 -19.5h-805q-41 0 -65.5 23.5 t-24.5 62.5zM403 1699q0 28 24 49l191 198q34 34 80 34q43 0 79 -34l192 -198q24 -24 23 -51q0 -24 -19 -43.5t-43 -19.5q-29 0 -52 24l-180 203l-181 -203q-21 -24 -49 -24q-27 0 -46 19.5t-19 45.5z" />
<glyph unicode="&#xcb;" horiz-adv-x="1250" d="M187 86v1344q0 39 24.5 62.5t65.5 23.5h805q38 0 59.5 -19.5t21.5 -53.5q0 -35 -21.5 -54t-59.5 -19h-721v-527h677q39 0 60.5 -19.5t21.5 -53.5q0 -35 -21.5 -54t-60.5 -19h-677v-551h721q38 0 59.5 -18.5t21.5 -53.5t-21.5 -54.5t-59.5 -19.5h-805q-41 0 -65.5 23.5 t-24.5 62.5zM407 1810q0 45 30.5 74.5t75.5 29.5t76 -29.5t31 -74.5q0 -47 -30 -75t-77 -28q-45 0 -75.5 29t-30.5 74zM775 1810q0 45 31 74.5t76 29.5q46 0 75.5 -29.5t29.5 -74.5t-29.5 -74t-75.5 -29q-45 0 -76 29t-31 74z" />
<glyph unicode="&#xcc;" horiz-adv-x="550" d="M-59 1908q0 30 22.5 51t52.5 21q39 0 76 -36l212 -232q15 -15 16 -35q0 -17 -14.5 -30t-32.5 -13q-13 0 -29 9l-251 185q-52 35 -52 80zM187 80v1356q0 41 23.5 66t64.5 25t64.5 -25t23.5 -66v-1356q0 -41 -23.5 -65.5t-64.5 -24.5t-64.5 24.5t-23.5 65.5z" />
<glyph unicode="&#xcd;" horiz-adv-x="550" d="M187 80v1356q0 41 23.5 66t64.5 25t64.5 -25t23.5 -66v-1356q0 -41 -23.5 -65.5t-64.5 -24.5t-64.5 24.5t-23.5 65.5zM229 1677q0 19 15 35l213 232q35 36 76 36q30 0 52 -21.5t22 -50.5q0 -45 -51 -80l-252 -185q-15 -9 -27 -9q-19 0 -33.5 13t-14.5 30z" />
<glyph unicode="&#xce;" horiz-adv-x="550" d="M-20 1699q0 28 24 49l191 198q34 34 80 34q43 0 79 -34l192 -198q24 -24 23 -51q0 -24 -19 -43.5t-43 -19.5q-29 0 -52 24l-180 203l-181 -203q-21 -24 -49 -24q-27 0 -46 19.5t-19 45.5zM187 80v1356q0 41 23.5 66t64.5 25t64.5 -25t23.5 -66v-1356q0 -41 -23.5 -65.5 t-64.5 -24.5t-64.5 24.5t-23.5 65.5z" />
<glyph unicode="&#xcf;" horiz-adv-x="550" d="M-16 1810q0 45 30.5 74.5t75.5 29.5t76 -29.5t31 -74.5q0 -47 -30 -75t-77 -28q-45 0 -75.5 29t-30.5 74zM187 80v1356q0 41 23.5 66t64.5 25t64.5 -25t23.5 -66v-1356q0 -41 -23.5 -65.5t-64.5 -24.5t-64.5 24.5t-23.5 65.5zM352 1810q0 45 31 74.5t76 29.5 q46 0 75.5 -29.5t29.5 -74.5t-29.5 -74t-75.5 -29q-45 0 -76 29t-31 74z" />
<glyph unicode="&#xd0;" horiz-adv-x="1617" d="M0 768q0 34 21.5 53.5t58.5 19.5h135v589q0 39 25 62.5t66 23.5h418q364 0 563 -197t199 -560t-200 -561t-562 -198h-418q-41 0 -66 24.5t-25 61.5v611h-135q-37 0 -58.5 18t-21.5 53zM392 150h324q589 0 589 609q0 607 -589 606h-324v-524h352q37 0 57 -19.5t20 -53.5 q0 -35 -20.5 -53t-56.5 -18h-352v-547z" />
<glyph unicode="&#xd1;" horiz-adv-x="1588" d="M187 80v1356q0 41 22.5 66t63.5 25q43 0 73 -37l891 -1193v1139q0 41 22.5 66t60.5 25q39 0 60.5 -25t21.5 -66v-1356q0 -41 -22.5 -65.5t-63.5 -24.5t-71 36l-892 1193v-1139q0 -41 -22.5 -65.5t-61.5 -24.5t-60.5 24.5t-21.5 65.5zM453 1752q0 37 24 77t67 67t96 27 q37 0 74 -12.5t96 -35.5q48 -21 78.5 -31t55.5 -10q34 0 54.5 14.5t41.5 39.5q25 32 46 32t34 -14t13 -37q0 -37 -23.5 -77t-67 -66.5t-96.5 -26.5q-37 0 -76.5 12.5t-93.5 36.5q-47 21 -77 31t-57 10q-36 0 -56 -15t-40 -40q-24 -33 -45 -33t-34.5 14t-13.5 37z" />
<glyph unicode="&#xd2;" horiz-adv-x="1642" d="M131 757q0 238 83 413.5t239 269t368 93.5q213 0 369 -93.5t239 -269t83 -411.5t-84 -411.5t-240 -270t-367 -94.5q-210 0 -366 94.5t-240 269t-84 410.5zM312 759q0 -299 134.5 -462.5t374.5 -163.5q242 0 376 162.5t134 463.5t-133 462.5t-377 161.5 q-240 0 -374.5 -162.5t-134.5 -461.5zM488 1908q0 30 22.5 51t52.5 21q39 0 76 -36l212 -232q15 -15 16 -35q0 -17 -14.5 -30t-32.5 -13q-13 0 -29 9l-251 185q-52 35 -52 80z" />
<glyph unicode="&#xd3;" horiz-adv-x="1642" d="M131 757q0 238 83 413.5t239 269t368 93.5q213 0 369 -93.5t239 -269t83 -411.5t-84 -411.5t-240 -270t-367 -94.5q-210 0 -366 94.5t-240 269t-84 410.5zM312 759q0 -299 134.5 -462.5t374.5 -163.5q242 0 376 162.5t134 463.5t-133 462.5t-377 161.5 q-240 0 -374.5 -162.5t-134.5 -461.5zM776 1677q0 19 15 35l213 232q35 36 76 36q30 0 52 -21.5t22 -50.5q0 -45 -51 -80l-252 -185q-15 -9 -27 -9q-19 0 -33.5 13t-14.5 30z" />
<glyph unicode="&#xd4;" horiz-adv-x="1642" d="M131 757q0 238 83 413.5t239 269t368 93.5q213 0 369 -93.5t239 -269t83 -411.5t-84 -411.5t-240 -270t-367 -94.5q-210 0 -366 94.5t-240 269t-84 410.5zM312 759q0 -299 134.5 -462.5t374.5 -163.5q242 0 376 162.5t134 463.5t-133 462.5t-377 161.5 q-240 0 -374.5 -162.5t-134.5 -461.5zM527 1699q0 28 24 49l191 198q34 34 80 34q43 0 79 -34l192 -198q24 -24 23 -51q0 -24 -19 -43.5t-43 -19.5q-29 0 -52 24l-180 203l-181 -203q-21 -24 -49 -24q-27 0 -46 19.5t-19 45.5z" />
<glyph unicode="&#xd5;" horiz-adv-x="1642" d="M131 757q0 238 83 413.5t239 269t368 93.5q213 0 369 -93.5t239 -269t83 -411.5t-84 -411.5t-240 -270t-367 -94.5q-210 0 -366 94.5t-240 269t-84 410.5zM312 759q0 -299 134.5 -462.5t374.5 -163.5q242 0 376 162.5t134 463.5t-133 462.5t-377 161.5 q-240 0 -374.5 -162.5t-134.5 -461.5zM481 1752q0 37 24 77t67 67t96 27q37 0 74 -12.5t96 -35.5q48 -21 78.5 -31t55.5 -10q34 0 54.5 14.5t41.5 39.5q25 32 46 32t34 -14t13 -37q0 -37 -23.5 -77t-67 -66.5t-96.5 -26.5q-37 0 -76.5 12.5t-93.5 36.5q-47 21 -77 31t-57 10 q-36 0 -56 -15t-40 -40q-24 -33 -45 -33t-34.5 14t-13.5 37z" />
<glyph unicode="&#xd6;" horiz-adv-x="1642" d="M131 757q0 238 83 413.5t239 269t368 93.5q213 0 369 -93.5t239 -269t83 -411.5t-84 -411.5t-240 -270t-367 -94.5q-210 0 -366 94.5t-240 269t-84 410.5zM312 759q0 -299 134.5 -462.5t374.5 -163.5q242 0 376 162.5t134 463.5t-133 462.5t-377 161.5 q-240 0 -374.5 -162.5t-134.5 -461.5zM531 1810q0 45 30.5 74.5t75.5 29.5t76 -29.5t31 -74.5q0 -47 -30 -75t-77 -28q-45 0 -75.5 29t-30.5 74zM899 1810q0 45 31 74.5t76 29.5q46 0 75.5 -29.5t29.5 -74.5t-29.5 -74t-75.5 -29q-45 0 -76 29t-31 74z" />
<glyph unicode="&#xd7;" d="M170 203q0 30 21 49l359 359l-359 359q-21 26 -21 50q0 28 21 49q19 19 45 19q29 0 50 -21l359 -359l359 359q24 19 50 19q31 0 50 -19q16 -17 16 -45q0 -31 -21 -52l-359 -359l359 -359q21 -21 21 -47q0 -29 -24 -53q-14 -17 -40 -17q-30 0 -52 25l-359 359l-359 -359 q-19 -21 -52 -22q-28 0 -47 20q-17 16 -17 45z" />
<glyph unicode="&#xd8;" horiz-adv-x="1642" d="M131 757q0 238 83 413.5t239 269t368 93.5q181 0 330 -70l55 96q25 41 67 41q28 0 48.5 -19.5t20.5 -47.5q0 -21 -13 -45l-61 -105q119 -101 181.5 -260t62.5 -364q0 -236 -84 -411.5t-240 -270t-367 -94.5q-183 0 -329 73l-55 -97q-26 -45 -67 -45q-29 0 -49 19.5 t-20 49.5q0 24 15 47l60 103q-119 101 -182 260t-63 364zM312 759q0 -318 148 -480l611 1048q-107 56 -250 56q-240 0 -374.5 -162.5t-134.5 -461.5zM572 191q107 -58 249 -58q242 0 376 162.5t134 463.5q0 318 -149 480z" />
<glyph unicode="&#xd9;" horiz-adv-x="1556" d="M176 593v843q0 41 24 66t65 25q38 0 62 -25t24 -66v-857q0 -222 108.5 -334t318.5 -112q211 0 318.5 112t107.5 334v857q0 41 25 66t64 25q41 0 64.5 -25t23.5 -66v-843q0 -299 -154 -454.5t-449 -155.5q-296 0 -449 155t-153 455zM445 1908q0 30 22.5 51t52.5 21 q39 0 76 -36l212 -232q15 -15 16 -35q0 -17 -14.5 -30t-32.5 -13q-13 0 -29 9l-251 185q-52 35 -52 80z" />
<glyph unicode="&#xda;" horiz-adv-x="1556" d="M176 593v843q0 41 24 66t65 25q38 0 62 -25t24 -66v-857q0 -222 108.5 -334t318.5 -112q211 0 318.5 112t107.5 334v857q0 41 25 66t64 25q41 0 64.5 -25t23.5 -66v-843q0 -299 -154 -454.5t-449 -155.5q-296 0 -449 155t-153 455zM733 1677q0 19 15 35l213 232 q35 36 76 36q30 0 52 -21.5t22 -50.5q0 -45 -51 -80l-252 -185q-15 -9 -27 -9q-19 0 -33.5 13t-14.5 30z" />
<glyph unicode="&#xdb;" horiz-adv-x="1556" d="M176 593v843q0 41 24 66t65 25q38 0 62 -25t24 -66v-857q0 -222 108.5 -334t318.5 -112q211 0 318.5 112t107.5 334v857q0 41 25 66t64 25q41 0 64.5 -25t23.5 -66v-843q0 -299 -154 -454.5t-449 -155.5q-296 0 -449 155t-153 455zM484 1699q0 28 24 49l191 198 q34 34 80 34q43 0 79 -34l192 -198q24 -24 23 -51q0 -24 -19 -43.5t-43 -19.5q-29 0 -52 24l-180 203l-181 -203q-21 -24 -49 -24q-27 0 -46 19.5t-19 45.5z" />
<glyph unicode="&#xdc;" horiz-adv-x="1556" d="M176 593v843q0 41 24 66t65 25q38 0 62 -25t24 -66v-857q0 -222 108.5 -334t318.5 -112q211 0 318.5 112t107.5 334v857q0 41 25 66t64 25q41 0 64.5 -25t23.5 -66v-843q0 -299 -154 -454.5t-449 -155.5q-296 0 -449 155t-153 455zM488 1810q0 45 30.5 74.5t75.5 29.5 t76 -29.5t31 -74.5q0 -47 -30 -75t-77 -28q-45 0 -75.5 29t-30.5 74zM856 1810q0 45 31 74.5t76 29.5q46 0 75.5 -29.5t29.5 -74.5t-29.5 -74t-75.5 -29q-45 0 -76 29t-31 74z" />
<glyph unicode="&#xdd;" horiz-adv-x="1291" d="M13 1443q0 34 24.5 58t56.5 24q37 0 64 -33l489 -626l488 626q26 33 63 33q30 0 53.5 -24t23.5 -58q0 -33 -19 -54l-523 -660v-649q0 -43 -24.5 -66.5t-63.5 -23.5t-64 23.5t-25 66.5v651l-521 658q-21 24 -22 54zM600 1677q0 19 15 35l213 232q35 36 76 36 q30 0 52 -21.5t22 -50.5q0 -45 -51 -80l-252 -185q-15 -9 -27 -9q-19 0 -33.5 13t-14.5 30z" />
<glyph unicode="&#xde;" horiz-adv-x="1386" d="M187 80v1356q0 41 23.5 66t62.5 25q41 0 64.5 -25t23.5 -66v-254h441q234 0 361 -107t127 -303t-129 -304.5t-359 -108.5h-441v-279q0 -41 -23.5 -65.5t-64.5 -24.5q-39 0 -62.5 24.5t-23.5 65.5zM361 505h421q170 0 252 65.5t82 201.5q0 135 -82 199.5t-252 64.5h-421 v-531z" />
<glyph unicode="&#xdf;" horiz-adv-x="1324" d="M162 76v950q0 236 127.5 368.5t357.5 132.5q170 0 267 -74t97 -208q0 -88 -44 -150.5t-126 -135.5q-60 -52 -90.5 -90t-30.5 -84q0 -69 55.5 -105.5t168.5 -75.5q99 -35 162.5 -67t108.5 -92t45 -152q0 -138 -109.5 -223t-286.5 -85q-82 0 -167.5 25t-150.5 66 q-39 28 -54.5 50t-15.5 52q0 29 15.5 47t41.5 18q25 0 78 -34q60 -37 118.5 -59.5t138.5 -22.5q103 0 162.5 42t59.5 117q0 71 -57 109t-175 79q-99 32 -160.5 63t-104.5 86.5t-43 144.5q0 77 39 131.5t119 130.5q69 62 102 106t33 103q0 71 -51.5 109.5t-146.5 38.5 q-148 0 -229 -89t-81 -253v-969q0 -41 -22.5 -63.5t-62.5 -22.5q-41 0 -64.5 22.5t-23.5 63.5z" />
<glyph unicode="&#xe0;" horiz-adv-x="1139" d="M125 301q0 119 60 184t198 94.5t382 29.5h48v70q0 129 -52.5 189.5t-171.5 60.5q-146 0 -296 -80q-58 -36 -82 -36q-26 0 -43.5 19.5t-17.5 49.5t18.5 52.5t59.5 46.5q75 43 171 67.5t190 24.5q394 0 394 -413v-584q0 -39 -22.5 -62.5t-61.5 -23.5t-62.5 23.5t-23.5 62.5 v102q-41 -92 -125 -142.5t-193 -50.5q-101 0 -186 40.5t-134.5 114t-49.5 161.5zM203 1551q0 35 24 57t58 22q50 0 88 -50l250 -326q13 -15 13 -33q0 -19 -15.5 -33t-33.5 -14q-19 0 -35 12l-306 283q-43 41 -43 82zM303 316q0 -84 61.5 -138.5t154.5 -54.5q128 0 211 87 t83 225v62h-39q-189 0 -288 -16.5t-141 -53.5t-42 -111z" />
<glyph unicode="&#xe1;" horiz-adv-x="1139" d="M125 301q0 119 60 184t198 94.5t382 29.5h48v70q0 129 -52.5 189.5t-171.5 60.5q-146 0 -296 -80q-58 -36 -82 -36q-26 0 -43.5 19.5t-17.5 49.5t18.5 52.5t59.5 46.5q75 43 171 67.5t190 24.5q394 0 394 -413v-584q0 -39 -22.5 -62.5t-61.5 -23.5t-62.5 23.5t-23.5 62.5 v102q-41 -92 -125 -142.5t-193 -50.5q-101 0 -186 40.5t-134.5 114t-49.5 161.5zM303 316q0 -84 61.5 -138.5t154.5 -54.5q128 0 211 87t83 225v62h-39q-189 0 -288 -16.5t-141 -53.5t-42 -111zM541 1221q0 17 13 33l250 326q39 50 88 50q35 0 58 -23t23 -56q0 -45 -43 -82 l-303 -283q-17 -12 -34 -12q-21 0 -36.5 14t-15.5 33z" />
<glyph unicode="&#xe2;" horiz-adv-x="1139" d="M125 301q0 119 60 184t198 94.5t382 29.5h48v70q0 129 -52.5 189.5t-171.5 60.5q-146 0 -296 -80q-58 -36 -82 -36q-26 0 -43.5 19.5t-17.5 49.5t18.5 52.5t59.5 46.5q75 43 171 67.5t190 24.5q394 0 394 -413v-584q0 -39 -22.5 -62.5t-61.5 -23.5t-62.5 23.5t-23.5 62.5 v102q-41 -92 -125 -142.5t-193 -50.5q-101 0 -186 40.5t-134.5 114t-49.5 161.5zM294 1239q0 24 15 45l198 292q34 52 82 52q47 0 82 -52l199 -292q15 -21 15 -43q0 -26 -20 -45.5t-46 -19.5q-39 0 -58 35l-172 279l-173 -279q-18 -35 -57 -35q-27 0 -46 18.5t-19 44.5z M303 316q0 -84 61.5 -138.5t154.5 -54.5q128 0 211 87t83 225v62h-39q-189 0 -288 -16.5t-141 -53.5t-42 -111z" />
<glyph unicode="&#xe3;" horiz-adv-x="1139" d="M125 301q0 119 60 184t198 94.5t382 29.5h48v70q0 129 -52.5 189.5t-171.5 60.5q-146 0 -296 -80q-58 -36 -82 -36q-26 0 -43.5 19.5t-17.5 49.5t18.5 52.5t59.5 46.5q75 43 171 67.5t190 24.5q394 0 394 -413v-584q0 -39 -22.5 -62.5t-61.5 -23.5t-62.5 23.5t-23.5 62.5 v102q-41 -92 -125 -142.5t-193 -50.5q-101 0 -186 40.5t-134.5 114t-49.5 161.5zM248 1336q0 38 24 85.5t67 81.5t96 34q41 0 80 -19.5t93 -54.5q47 -31 75 -45t52 -14q34 0 54.5 19.5t41.5 53.5q15 27 26 38.5t26 11.5q19 0 32 -16.5t13 -39.5q0 -37 -23.5 -85t-67 -83 t-96.5 -35q-41 0 -79.5 19.5t-92.5 56.5q-48 30 -75.5 44t-50.5 14q-37 0 -57.5 -19.5t-40.5 -53.5q-15 -24 -25.5 -35.5t-25.5 -11.5q-19 0 -32.5 14.5t-13.5 39.5zM303 316q0 -84 61.5 -138.5t154.5 -54.5q128 0 211 87t83 225v62h-39q-189 0 -288 -16.5t-141 -53.5 t-42 -111z" />
<glyph unicode="&#xe4;" horiz-adv-x="1139" d="M125 301q0 119 60 184t198 94.5t382 29.5h48v70q0 129 -52.5 189.5t-171.5 60.5q-146 0 -296 -80q-58 -36 -82 -36q-26 0 -43.5 19.5t-17.5 49.5t18.5 52.5t59.5 46.5q75 43 171 67.5t190 24.5q394 0 394 -413v-584q0 -39 -22.5 -62.5t-61.5 -23.5t-62.5 23.5t-23.5 62.5 v102q-41 -92 -125 -142.5t-193 -50.5q-101 0 -186 40.5t-134.5 114t-49.5 161.5zM298 1404q0 45 30.5 73.5t75.5 28.5t76 -28.5t31 -73.5q0 -47 -30 -75t-77 -28q-45 0 -75.5 29t-30.5 74zM303 316q0 -84 61.5 -138.5t154.5 -54.5q128 0 211 87t83 225v62h-39 q-189 0 -288 -16.5t-141 -53.5t-42 -111zM666 1404q0 45 31 73.5t76 28.5q46 0 75.5 -28.5t29.5 -73.5t-29.5 -74t-75.5 -29q-45 0 -76 29t-31 74z" />
<glyph unicode="&#xe5;" horiz-adv-x="1139" d="M125 301q0 119 60 184t198 94.5t382 29.5h48v70q0 129 -52.5 189.5t-171.5 60.5q-146 0 -296 -80q-58 -36 -82 -36q-26 0 -43.5 19.5t-17.5 49.5t18.5 52.5t59.5 46.5q75 43 171 67.5t190 24.5q394 0 394 -413v-584q0 -39 -22.5 -62.5t-61.5 -23.5t-62.5 23.5t-23.5 62.5 v102q-41 -92 -125 -142.5t-193 -50.5q-101 0 -186 40.5t-134.5 114t-49.5 161.5zM303 316q0 -84 61.5 -138.5t154.5 -54.5q128 0 211 87t83 225v62h-39q-189 0 -288 -16.5t-141 -53.5t-42 -111zM371 1404q0 90 63.5 151.5t154.5 61.5q90 0 153.5 -61.5t63.5 -151.5 t-63.5 -151t-153.5 -61q-91 0 -154.5 61t-63.5 151zM485 1404q0 -45 29 -76t75 -31q45 0 74 31t29 76t-29 76.5t-74 31.5q-46 0 -75 -31.5t-29 -76.5z" />
<glyph unicode="&#xe6;" horiz-adv-x="1833" d="M125 301q0 119 60 184t199 94.5t386 29.5h49v64q0 133 -53.5 194.5t-172.5 61.5q-105 0 -173.5 -23.5t-140.5 -62.5q-21 -12 -39 -21t-31 -9q-26 0 -42.5 19.5t-16.5 49.5q0 56 78 99q159 92 361 92q265 0 349 -187q62 90 158 138.5t211 48.5q129 0 227 -61.5t152 -173 t54 -259.5q0 -43 -18.5 -62.5t-57.5 -19.5h-675q9 -183 97 -276.5t248 -93.5q81 0 138 21.5t126 60.5q21 13 41.5 23.5t35.5 10.5q24 0 40 -19t16 -50q0 -55 -75 -98q-74 -43 -158.5 -67t-163.5 -24q-160 0 -272 69t-170 198q-40 -127 -139 -197t-242 -70q-107 0 -195 40.5 t-139.5 113t-51.5 162.5zM303 316q0 -86 63.5 -139.5t162.5 -53.5q127 0 208.5 90t81.5 228v56h-41q-189 0 -290 -16.5t-143 -53.5t-42 -111zM993 609h594q-5 160 -79 244.5t-203 84.5q-133 0 -214.5 -86.5t-97.5 -242.5z" />
<glyph unicode="&#xe7;" horiz-adv-x="1029" d="M99 525q0 162 63.5 286.5t177.5 193t262 68.5q82 0 162.5 -22.5t140.5 -65.5q39 -26 55 -51t16 -54q0 -31 -16 -50t-42 -19q-15 0 -32.5 8t-29 17t-15.5 11q-56 37 -106.5 58.5t-123.5 21.5q-157 0 -244.5 -106.5t-87.5 -295.5t87.5 -292.5t244.5 -103.5q74 0 126.5 21.5 t105.5 58.5q24 15 45 25.5t37 10.5q23 0 39.5 -19t16.5 -50q0 -28 -15.5 -50.5t-56.5 -49.5q-53 -37 -125 -60.5t-150 -28.5l-8 -81q26 6 55 6q67 0 113.5 -38t46.5 -110q0 -80 -66.5 -129.5t-187.5 -49.5q-78 0 -146 25q-17 7 -27 21t-10 29q0 19 13 33t35 14q10 0 16 -2 q58 -17 121 -17q60 0 91.5 19.5t31.5 56.5q0 28 -17.5 43t-49.5 15q-24 0 -60.5 -9.5t-44.5 -9.5q-17 0 -31 11.5t-12 27.5l16 148q-189 28 -301.5 170.5t-112.5 364.5z" />
<glyph unicode="&#xe8;" horiz-adv-x="1132" d="M99 527q0 162 62.5 285.5t175 192t256.5 68.5q205 0 325 -133.5t120 -360.5q0 -43 -17 -62.5t-55 -19.5h-693q19 -370 351 -370q84 0 143.5 22.5t129.5 61.5q55 33 75 32q23 0 40.5 -19t17.5 -50q0 -53 -76 -98q-77 -46 -162.5 -68.5t-167.5 -22.5q-243 0 -384 144 t-141 398zM208 1551q0 35 24 57t58 22q50 0 88 -50l250 -326q13 -15 13 -33q0 -19 -15.5 -33t-33.5 -14q-19 0 -35 12l-306 283q-43 41 -43 82zM277 609h609q-4 160 -79.5 244.5t-211.5 84.5q-137 0 -219.5 -86.5t-98.5 -242.5z" />
<glyph unicode="&#xe9;" horiz-adv-x="1132" d="M99 527q0 162 62.5 285.5t175 192t256.5 68.5q205 0 325 -133.5t120 -360.5q0 -43 -17 -62.5t-55 -19.5h-693q19 -370 351 -370q84 0 143.5 22.5t129.5 61.5q55 33 75 32q23 0 40.5 -19t17.5 -50q0 -53 -76 -98q-77 -46 -162.5 -68.5t-167.5 -22.5q-243 0 -384 144 t-141 398zM277 609h609q-4 160 -79.5 244.5t-211.5 84.5q-137 0 -219.5 -86.5t-98.5 -242.5zM546 1221q0 17 13 33l250 326q39 50 88 50q35 0 58 -23t23 -56q0 -45 -43 -82l-303 -283q-17 -12 -34 -12q-21 0 -36.5 14t-15.5 33z" />
<glyph unicode="&#xea;" horiz-adv-x="1132" d="M99 527q0 162 62.5 285.5t175 192t256.5 68.5q205 0 325 -133.5t120 -360.5q0 -43 -17 -62.5t-55 -19.5h-693q19 -370 351 -370q84 0 143.5 22.5t129.5 61.5q55 33 75 32q23 0 40.5 -19t17.5 -50q0 -53 -76 -98q-77 -46 -162.5 -68.5t-167.5 -22.5q-243 0 -384 144 t-141 398zM277 609h609q-4 160 -79.5 244.5t-211.5 84.5q-137 0 -219.5 -86.5t-98.5 -242.5zM299 1239q0 24 15 45l198 292q34 52 82 52q47 0 82 -52l199 -292q15 -21 15 -43q0 -26 -20 -45.5t-46 -19.5q-39 0 -58 35l-172 279l-173 -279q-18 -35 -57 -35q-27 0 -46 18.5 t-19 44.5z" />
<glyph unicode="&#xeb;" horiz-adv-x="1132" d="M99 527q0 162 62.5 285.5t175 192t256.5 68.5q205 0 325 -133.5t120 -360.5q0 -43 -17 -62.5t-55 -19.5h-693q19 -370 351 -370q84 0 143.5 22.5t129.5 61.5q55 33 75 32q23 0 40.5 -19t17.5 -50q0 -53 -76 -98q-77 -46 -162.5 -68.5t-167.5 -22.5q-243 0 -384 144 t-141 398zM277 609h609q-4 160 -79.5 244.5t-211.5 84.5q-137 0 -219.5 -86.5t-98.5 -242.5zM303 1404q0 45 30.5 73.5t75.5 28.5t76 -28.5t31 -73.5q0 -47 -30 -75t-77 -28q-45 0 -75.5 29t-30.5 74zM671 1404q0 45 31 73.5t76 28.5q46 0 75.5 -28.5t29.5 -73.5t-29.5 -74 t-75.5 -29q-45 0 -76 29t-31 74z" />
<glyph unicode="&#xec;" horiz-adv-x="498" d="M-136 1551q0 35 24 57t58 22q50 0 88 -50l250 -326q13 -15 13 -33q0 -19 -15.5 -33t-33.5 -14q-19 0 -35 12l-306 283q-43 41 -43 82zM162 76v907q0 41 24.5 63.5t63.5 22.5t62 -22.5t23 -63.5v-907q0 -43 -23.5 -64.5t-61.5 -21.5q-39 0 -63.5 22.5t-24.5 63.5z" />
<glyph unicode="&#xed;" horiz-adv-x="498" d="M162 76v907q0 41 24.5 63.5t63.5 22.5t62 -22.5t23 -63.5v-907q0 -43 -23.5 -64.5t-61.5 -21.5q-39 0 -63.5 22.5t-24.5 63.5zM202 1221q0 17 13 33l250 326q39 50 88 50q35 0 58 -23t23 -56q0 -45 -43 -82l-303 -283q-17 -12 -34 -12q-21 0 -36.5 14t-15.5 33z" />
<glyph unicode="&#xee;" horiz-adv-x="498" d="M-45 1239q0 24 15 45l198 292q34 52 82 52q47 0 82 -52l199 -292q15 -21 15 -43q0 -26 -20 -45.5t-46 -19.5q-39 0 -58 35l-172 279l-173 -279q-18 -35 -57 -35q-27 0 -46 18.5t-19 44.5zM162 76v907q0 41 24.5 63.5t63.5 22.5t62 -22.5t23 -63.5v-907q0 -43 -23.5 -64.5 t-61.5 -21.5q-39 0 -63.5 22.5t-24.5 63.5z" />
<glyph unicode="&#xef;" horiz-adv-x="498" d="M-41 1404q0 45 30.5 73.5t75.5 28.5t76 -28.5t31 -73.5q0 -47 -30 -75t-77 -28q-45 0 -75.5 29t-30.5 74zM162 76v907q0 41 24.5 63.5t63.5 22.5t62 -22.5t23 -63.5v-907q0 -43 -23.5 -64.5t-61.5 -21.5q-39 0 -63.5 22.5t-24.5 63.5zM327 1404q0 45 31 73.5t76 28.5 q46 0 75.5 -28.5t29.5 -73.5t-29.5 -74t-75.5 -29q-45 0 -76 29t-31 74z" />
<glyph unicode="&#xf0;" horiz-adv-x="1201" d="M99 482q0 148 61.5 260t171 174.5t253.5 62.5q219 0 329 -144q-48 195 -202 349l-284 -102q-16 -5 -22 -5q-24 0 -39.5 18.5t-15.5 41.5q0 39 41 55l219 76q-97 72 -203 115q-59 28 -59 75q0 29 21.5 49t55.5 20q21 0 50 -11q170 -66 304 -185l235 84q17 5 23 5 q25 0 40.5 -17.5t15.5 -39.5q0 -17 -10.5 -32t-32.5 -24l-183 -66q236 -262 236 -634q0 -304 -131.5 -463t-381.5 -159q-146 0 -257.5 61t-173 174t-61.5 262zM275 482q0 -170 84 -261.5t236 -91.5t236.5 93.5t84.5 261.5q0 166 -82.5 259.5t-238.5 93.5q-152 0 -236 -92.5 t-84 -262.5z" />
<glyph unicode="&#xf1;" horiz-adv-x="1221" d="M162 76v907q0 39 23.5 62.5t64.5 23.5q39 0 61 -23.5t22 -60.5v-109q51 96 144 146.5t211 50.5q377 0 377 -415v-582q0 -41 -22.5 -63.5t-63.5 -22.5t-65 22.5t-24 63.5v571q0 146 -57 213t-181 67q-144 0 -230.5 -88t-86.5 -239v-524q0 -41 -22.5 -63.5t-62.5 -22.5 q-41 0 -64.5 22.5t-23.5 63.5zM273 1336q0 38 24 85.5t67 81.5t96 34q41 0 80 -19.5t93 -54.5q47 -31 75 -45t52 -14q34 0 54.5 19.5t41.5 53.5q15 27 26 38.5t26 11.5q19 0 32 -16.5t13 -39.5q0 -37 -23.5 -85t-67 -83t-96.5 -35q-41 0 -79.5 19.5t-92.5 56.5 q-48 30 -75.5 44t-50.5 14q-37 0 -57.5 -19.5t-40.5 -53.5q-15 -24 -25.5 -35.5t-25.5 -11.5q-19 0 -32.5 14.5t-13.5 39.5z" />
<glyph unicode="&#xf2;" horiz-adv-x="1192" d="M99 529q0 164 61.5 287.5t174 190t260.5 66.5t262.5 -66.5t175.5 -190.5t61 -287q0 -164 -61 -287t-175 -190t-263 -67q-148 0 -260.5 67t-174 190t-61.5 287zM210 1551q0 35 24 57t58 22q50 0 88 -50l250 -326q13 -15 13 -33q0 -19 -15.5 -33t-33.5 -14q-19 0 -35 12 l-306 283q-43 41 -43 82zM275 529q0 -193 83 -296.5t237 -103.5q156 0 238.5 102t82.5 298q0 191 -83.5 295.5t-237.5 104.5q-152 0 -236 -104.5t-84 -295.5z" />
<glyph unicode="&#xf3;" horiz-adv-x="1192" d="M99 529q0 164 61.5 287.5t174 190t260.5 66.5t262.5 -66.5t175.5 -190.5t61 -287q0 -164 -61 -287t-175 -190t-263 -67q-148 0 -260.5 67t-174 190t-61.5 287zM275 529q0 -193 83 -296.5t237 -103.5q156 0 238.5 102t82.5 298q0 191 -83.5 295.5t-237.5 104.5 q-152 0 -236 -104.5t-84 -295.5zM548 1221q0 17 13 33l250 326q39 50 88 50q35 0 58 -23t23 -56q0 -45 -43 -82l-303 -283q-17 -12 -34 -12q-21 0 -36.5 14t-15.5 33z" />
<glyph unicode="&#xf4;" horiz-adv-x="1192" d="M99 529q0 164 61.5 287.5t174 190t260.5 66.5t262.5 -66.5t175.5 -190.5t61 -287q0 -164 -61 -287t-175 -190t-263 -67q-148 0 -260.5 67t-174 190t-61.5 287zM275 529q0 -193 83 -296.5t237 -103.5q156 0 238.5 102t82.5 298q0 191 -83.5 295.5t-237.5 104.5 q-152 0 -236 -104.5t-84 -295.5zM301 1239q0 24 15 45l198 292q34 52 82 52q47 0 82 -52l199 -292q15 -21 15 -43q0 -26 -20 -45.5t-46 -19.5q-39 0 -58 35l-172 279l-173 -279q-18 -35 -57 -35q-27 0 -46 18.5t-19 44.5z" />
<glyph unicode="&#xf5;" horiz-adv-x="1192" d="M99 529q0 164 61.5 287.5t174 190t260.5 66.5t262.5 -66.5t175.5 -190.5t61 -287q0 -164 -61 -287t-175 -190t-263 -67q-148 0 -260.5 67t-174 190t-61.5 287zM255 1336q0 38 24 85.5t67 81.5t96 34q41 0 80 -19.5t93 -54.5q47 -31 75 -45t52 -14q34 0 54.5 19.5 t41.5 53.5q15 27 26 38.5t26 11.5q19 0 32 -16.5t13 -39.5q0 -37 -23.5 -85t-67 -83t-96.5 -35q-41 0 -79.5 19.5t-92.5 56.5q-48 30 -75.5 44t-50.5 14q-37 0 -57.5 -19.5t-40.5 -53.5q-15 -24 -25.5 -35.5t-25.5 -11.5q-19 0 -32.5 14.5t-13.5 39.5zM275 529 q0 -193 83 -296.5t237 -103.5q156 0 238.5 102t82.5 298q0 191 -83.5 295.5t-237.5 104.5q-152 0 -236 -104.5t-84 -295.5z" />
<glyph unicode="&#xf6;" horiz-adv-x="1192" d="M99 529q0 164 61.5 287.5t174 190t260.5 66.5t262.5 -66.5t175.5 -190.5t61 -287q0 -164 -61 -287t-175 -190t-263 -67q-148 0 -260.5 67t-174 190t-61.5 287zM275 529q0 -193 83 -296.5t237 -103.5q156 0 238.5 102t82.5 298q0 191 -83.5 295.5t-237.5 104.5 q-152 0 -236 -104.5t-84 -295.5zM305 1404q0 45 30.5 73.5t75.5 28.5t76 -28.5t31 -73.5q0 -47 -30 -75t-77 -28q-45 0 -75.5 29t-30.5 74zM673 1404q0 45 31 73.5t76 28.5q46 0 75.5 -28.5t29.5 -73.5t-29.5 -74t-75.5 -29q-45 0 -76 29t-31 74z" />
<glyph unicode="&#xf7;" d="M133 615q0 27 20.5 45.5t49.5 18.5h911q30 0 49 -20.5t19 -49.5q0 -26 -20.5 -45.5t-47.5 -19.5h-911q-31 0 -50.5 20.5t-19.5 50.5zM542 181q0 47 30 76t73 29q45 0 74.5 -29t29.5 -76q0 -46 -29.5 -75.5t-74.5 -29.5q-43 0 -73 29.5t-30 75.5zM542 1045q0 47 30 76.5 t73 29.5q45 0 74.5 -29.5t29.5 -76.5t-30.5 -77t-73.5 -30t-73 30t-30 77z" />
<glyph unicode="&#xf8;" horiz-adv-x="1192" d="M99 529q0 164 61.5 287.5t174 190t260.5 66.5q127 0 224 -47l45 80q17 32 54 31q24 0 43.5 -16.5t19.5 -41.5q0 -14 -11 -32l-49 -86q83 -73 128 -182.5t45 -249.5q0 -164 -61 -287t-175 -190t-263 -67q-123 0 -219 45l-45 -79q-19 -33 -54 -33q-24 0 -43 17.5t-19 40.5 q0 15 11 32l49 84q-84 72 -130 185t-46 252zM275 529q0 -196 82 -297l387 665q-64 32 -149 32q-152 0 -236 -104.5t-84 -295.5zM452 158q57 -29 143 -29q158 0 240.5 102t82.5 298q0 189 -81 290z" />
<glyph unicode="&#xf9;" horiz-adv-x="1205" d="M158 398v585q0 39 23.5 62.5t63.5 23.5q41 0 63.5 -23.5t22.5 -62.5v-581q0 -140 56 -205.5t177 -65.5q137 0 220.5 89.5t83.5 235.5v527q0 39 24 62.5t65 23.5t63.5 -23.5t22.5 -62.5v-909q0 -37 -22.5 -60.5t-63.5 -23.5q-39 0 -61.5 22.5t-22.5 58.5v107 q-50 -94 -139 -143.5t-201 -49.5q-187 0 -281 104t-94 309zM217 1551q0 35 24 57t58 22q50 0 88 -50l250 -326q13 -15 13 -33q0 -19 -15.5 -33t-33.5 -14q-19 0 -35 12l-306 283q-43 41 -43 82z" />
<glyph unicode="&#xfa;" horiz-adv-x="1205" d="M158 398v585q0 39 23.5 62.5t63.5 23.5q41 0 63.5 -23.5t22.5 -62.5v-581q0 -140 56 -205.5t177 -65.5q137 0 220.5 89.5t83.5 235.5v527q0 39 24 62.5t65 23.5t63.5 -23.5t22.5 -62.5v-909q0 -37 -22.5 -60.5t-63.5 -23.5q-39 0 -61.5 22.5t-22.5 58.5v107 q-50 -94 -139 -143.5t-201 -49.5q-187 0 -281 104t-94 309zM555 1221q0 17 13 33l250 326q39 50 88 50q35 0 58 -23t23 -56q0 -45 -43 -82l-303 -283q-17 -12 -34 -12q-21 0 -36.5 14t-15.5 33z" />
<glyph unicode="&#xfb;" horiz-adv-x="1205" d="M158 398v585q0 39 23.5 62.5t63.5 23.5q41 0 63.5 -23.5t22.5 -62.5v-581q0 -140 56 -205.5t177 -65.5q137 0 220.5 89.5t83.5 235.5v527q0 39 24 62.5t65 23.5t63.5 -23.5t22.5 -62.5v-909q0 -37 -22.5 -60.5t-63.5 -23.5q-39 0 -61.5 22.5t-22.5 58.5v107 q-50 -94 -139 -143.5t-201 -49.5q-187 0 -281 104t-94 309zM308 1239q0 24 15 45l198 292q34 52 82 52q47 0 82 -52l199 -292q15 -21 15 -43q0 -26 -20 -45.5t-46 -19.5q-39 0 -58 35l-172 279l-173 -279q-18 -35 -57 -35q-27 0 -46 18.5t-19 44.5z" />
<glyph unicode="&#xfc;" horiz-adv-x="1205" d="M158 398v585q0 39 23.5 62.5t63.5 23.5q41 0 63.5 -23.5t22.5 -62.5v-581q0 -140 56 -205.5t177 -65.5q137 0 220.5 89.5t83.5 235.5v527q0 39 24 62.5t65 23.5t63.5 -23.5t22.5 -62.5v-909q0 -37 -22.5 -60.5t-63.5 -23.5q-39 0 -61.5 22.5t-22.5 58.5v107 q-50 -94 -139 -143.5t-201 -49.5q-187 0 -281 104t-94 309zM312 1404q0 45 30.5 73.5t75.5 28.5t76 -28.5t31 -73.5q0 -47 -30 -75t-77 -28q-45 0 -75.5 29t-30.5 74zM680 1404q0 45 31 73.5t76 28.5q46 0 75.5 -28.5t29.5 -73.5t-29.5 -74t-75.5 -29q-45 0 -76 29t-31 74z " />
<glyph unicode="&#xfd;" horiz-adv-x="1104" d="M33 989q0 33 28.5 56.5t63.5 23.5q21 0 41.5 -13t30.5 -36l359 -807l360 802q24 52 75 52q33 0 58.5 -21.5t25.5 -54.5q0 -19 -8 -34l-605 -1303q-10 -25 -30.5 -37.5t-41.5 -12.5q-33 0 -57.5 20.5t-24.5 53.5q0 16 8 34l150 325l-425 920q-8 14 -8 32zM508 1221 q0 17 13 33l250 326q39 50 88 50q35 0 58 -23t23 -56q0 -45 -43 -82l-303 -283q-17 -12 -34 -12q-21 0 -36.5 14t-15.5 33z" />
<glyph unicode="&#xfe;" horiz-adv-x="1250" d="M162 -314v1757q0 39 24.5 61.5t63.5 22.5t62 -22.5t23 -61.5v-577q47 99 139 153t214 54q133 0 239.5 -67.5t166 -191.5t59.5 -289q0 -166 -59.5 -288.5t-165 -187t-240.5 -64.5q-123 0 -214 53.5t-139 152.5v-505q0 -39 -23.5 -61.5t-61.5 -22.5q-39 0 -63.5 22.5 t-24.5 61.5zM335 529q0 -191 83 -295.5t236 -104.5q154 0 237 104.5t83 291.5t-84 294.5t-236 107.5t-235.5 -103.5t-83.5 -294.5z" />
<glyph unicode="&#xff;" horiz-adv-x="1104" d="M33 989q0 33 28.5 56.5t63.5 23.5q21 0 41.5 -13t30.5 -36l359 -807l360 802q24 52 75 52q33 0 58.5 -21.5t25.5 -54.5q0 -19 -8 -34l-605 -1303q-10 -25 -30.5 -37.5t-41.5 -12.5q-33 0 -57.5 20.5t-24.5 53.5q0 16 8 34l150 325l-425 920q-8 14 -8 32zM265 1404 q0 45 30.5 73.5t75.5 28.5t76 -28.5t31 -73.5q0 -47 -30 -75t-77 -28q-45 0 -75.5 29t-30.5 74zM633 1404q0 45 31 73.5t76 28.5q46 0 75.5 -28.5t29.5 -73.5t-29.5 -74t-75.5 -29q-45 0 -76 29t-31 74z" />
<glyph unicode="&#x152;" horiz-adv-x="2247" d="M131 759q0 363 199 560t560 197h1187q39 0 60.5 -19.5t21.5 -53.5q0 -74 -82 -73h-723v-527h680q39 0 60.5 -19.5t21.5 -53.5q0 -35 -21.5 -54t-60.5 -19h-680v-551h723q82 0 82 -72q0 -35 -21.5 -54.5t-60.5 -19.5h-1187q-361 0 -560 198t-199 561zM312 759 q0 -299 146 -456t443 -157h281v1224h-281q-299 0 -444 -157t-145 -454z" />
<glyph unicode="&#x153;" horiz-adv-x="1943" d="M99 529q0 164 61.5 287.5t173 190t259.5 66.5q142 0 248.5 -64.5t162.5 -183.5q60 119 167 183.5t244 64.5q198 0 316 -134.5t118 -359.5q0 -43 -18.5 -62.5t-56.5 -19.5h-682q8 -183 97 -276.5t249 -93.5q84 0 144.5 22.5t124.5 61.5q5 2 32.5 17t45.5 15q23 0 39.5 -19 t16.5 -50q0 -55 -76 -98q-78 -43 -163.5 -67t-163.5 -24q-152 0 -261.5 63t-170.5 186q-58 -121 -164.5 -185t-248.5 -64q-148 0 -259.5 67t-173 190t-61.5 287zM275 529q0 -193 83 -296.5t235 -103.5q156 0 238.5 102t82.5 298q0 191 -83.5 295.5t-235.5 104.5t-236 -105.5 t-84 -294.5zM1096 609h601q-4 160 -78.5 244.5t-205.5 84.5q-135 0 -218 -86.5t-99 -242.5z" />
<glyph unicode="&#x178;" horiz-adv-x="1291" d="M13 1443q0 34 24.5 58t56.5 24q37 0 64 -33l489 -626l488 626q26 33 63 33q30 0 53.5 -24t23.5 -58q0 -33 -19 -54l-523 -660v-649q0 -43 -24.5 -66.5t-63.5 -23.5t-64 23.5t-25 66.5v651l-521 658q-21 24 -22 54zM355 1810q0 45 30.5 74.5t75.5 29.5t76 -29.5t31 -74.5 q0 -47 -30 -75t-77 -28q-45 0 -75.5 29t-30.5 74zM723 1810q0 45 31 74.5t76 29.5q46 0 75.5 -29.5t29.5 -74.5t-29.5 -74t-75.5 -29q-45 0 -76 29t-31 74z" />
<glyph unicode="&#x2c6;" horiz-adv-x="644" d="M28 1239q0 24 15 45l198 292q34 52 82 52q47 0 82 -52l199 -292q15 -21 15 -43q0 -26 -20 -45.5t-46 -19.5q-39 0 -58 35l-172 279l-173 -279q-18 -35 -57 -35q-27 0 -46 18.5t-19 44.5z" />
<glyph unicode="&#x2dc;" horiz-adv-x="644" d="M-18 1336q0 38 24 85.5t67 81.5t96 34q41 0 80 -19.5t93 -54.5q47 -31 75 -45t52 -14q34 0 54.5 19.5t41.5 53.5q15 27 26 38.5t26 11.5q19 0 32 -16.5t13 -39.5q0 -37 -23.5 -85t-67 -83t-96.5 -35q-41 0 -79.5 19.5t-92.5 56.5q-48 30 -75.5 44t-50.5 14 q-37 0 -57.5 -19.5t-40.5 -53.5q-15 -24 -25.5 -35.5t-25.5 -11.5q-19 0 -32.5 14.5t-13.5 39.5z" />
<glyph unicode="&#x2000;" horiz-adv-x="990" />
<glyph unicode="&#x2001;" horiz-adv-x="1980" />
<glyph unicode="&#x2002;" horiz-adv-x="990" />
<glyph unicode="&#x2003;" horiz-adv-x="1980" />
<glyph unicode="&#x2004;" horiz-adv-x="660" />
<glyph unicode="&#x2005;" horiz-adv-x="495" />
<glyph unicode="&#x2006;" horiz-adv-x="330" />
<glyph unicode="&#x2007;" horiz-adv-x="330" />
<glyph unicode="&#x2008;" horiz-adv-x="247" />
<glyph unicode="&#x2009;" horiz-adv-x="396" />
<glyph unicode="&#x200a;" horiz-adv-x="110" />
<glyph unicode="&#x2010;" horiz-adv-x="913" d="M140 572q0 33 20.5 53t58.5 20h473q41 0 61.5 -20.5t20.5 -52.5t-20.5 -51.5t-61.5 -19.5h-473q-38 0 -58.5 19.5t-20.5 51.5z" />
<glyph unicode="&#x2011;" horiz-adv-x="913" d="M140 572q0 33 20.5 53t58.5 20h473q41 0 61.5 -20.5t20.5 -52.5t-20.5 -51.5t-61.5 -19.5h-473q-38 0 -58.5 19.5t-20.5 51.5z" />
<glyph unicode="&#x2012;" horiz-adv-x="913" d="M140 572q0 33 20.5 53t58.5 20h473q41 0 61.5 -20.5t20.5 -52.5t-20.5 -51.5t-61.5 -19.5h-473q-38 0 -58.5 19.5t-20.5 51.5z" />
<glyph unicode="&#x2013;" horiz-adv-x="1075" d="M0 572q0 24 19.5 40t51.5 16h933q32 0 51.5 -16.5t19.5 -39.5q0 -24 -19.5 -39.5t-51.5 -15.5h-933q-32 0 -51.5 15.5t-19.5 39.5z" />
<glyph unicode="&#x2014;" horiz-adv-x="2150" d="M0 572q0 24 19.5 40t51.5 16h2008q33 0 52 -16.5t19 -39.5q0 -24 -19 -39.5t-52 -15.5h-2008q-32 0 -51.5 15.5t-19.5 39.5z" />
<glyph unicode="&#x2018;" horiz-adv-x="491" d="M127 1219q0 166 109 287q21 21 50 21q24 0 41 -16.5t17 -37.5q0 -24 -17 -41q-56 -58 -71 -142q47 -4 77 -36.5t30 -81.5q0 -54 -32 -87.5t-81 -33.5q-56 0 -89.5 41t-33.5 127z" />
<glyph unicode="&#x2019;" horiz-adv-x="491" d="M127 1406q0 54 33 87.5t83 33.5q54 0 87 -42t33 -126q0 -170 -109 -286q-21 -21 -47 -22q-24 0 -41.5 16.5t-17.5 38.5q0 24 18 41q56 55 70 141q-47 5 -78 37t-31 81z" />
<glyph unicode="&#x201a;" horiz-adv-x="491" d="M127 109q0 54 33 88.5t83 34.5q54 0 87 -42t33 -126q0 -170 -109 -286q-21 -24 -49 -23q-21 0 -39 16t-18 38q0 24 18 41q56 58 70 144q-47 4 -78 35t-31 80z" />
<glyph unicode="&#x201c;" horiz-adv-x="848" d="M127 1219q0 166 109 287q21 21 50 21q24 0 41 -16.5t17 -37.5q0 -24 -17 -41q-56 -58 -71 -142q47 -4 77 -36.5t30 -81.5q0 -54 -32 -87.5t-81 -33.5q-56 0 -89.5 41t-33.5 127zM484 1219q0 166 109 287q21 21 50 21q24 0 41 -16.5t17 -37.5q0 -24 -17 -41 q-56 -58 -71 -142q47 -4 77 -36.5t30 -81.5q0 -54 -32 -87.5t-81 -33.5q-56 0 -89.5 41t-33.5 127z" />
<glyph unicode="&#x201d;" horiz-adv-x="848" d="M127 1406q0 54 33 87.5t83 33.5q54 0 87 -42t33 -126q0 -170 -109 -286q-21 -21 -47 -22q-24 0 -41.5 16.5t-17.5 38.5q0 24 18 41q56 55 70 141q-47 5 -78 37t-31 81zM484 1406q0 54 33 87.5t83 33.5q54 0 87 -42t33 -126q0 -170 -109 -286q-21 -21 -47 -22 q-24 0 -41.5 16.5t-17.5 38.5q0 24 18 41q56 55 70 141q-47 5 -78 37t-31 81z" />
<glyph unicode="&#x201e;" horiz-adv-x="848" d="M127 109q0 54 33 88.5t83 34.5q54 0 87 -42t33 -126q0 -170 -109 -286q-21 -24 -49 -23q-21 0 -39 16t-18 38q0 24 18 41q56 58 70 144q-47 4 -78 35t-31 80zM484 109q0 54 33 88.5t83 34.5q54 0 87 -42t33 -126q0 -170 -109 -286q-21 -24 -49 -23q-21 0 -39 16t-18 38 q0 24 18 41q56 58 70 144q-47 4 -78 35t-31 80z" />
<glyph unicode="&#x2022;" horiz-adv-x="1126" d="M174 570q0 99 50.5 187t140 141.5t199.5 53.5q103 0 192 -50t142.5 -137.5t53.5 -194.5q0 -103 -52.5 -190t-141.5 -139t-194 -52q-104 0 -194.5 50.5t-143 137.5t-52.5 193z" />
<glyph unicode="&#x2026;" horiz-adv-x="1476" d="M127 109q0 54 34 88.5t87 34.5q49 0 82 -34t33 -89q0 -53 -33 -86t-82 -33q-53 0 -87 33t-34 86zM620 109q0 54 34 88.5t86 34.5q50 0 83 -34t33 -89q0 -53 -33 -86t-83 -33q-52 0 -86 33t-34 86zM1112 109q0 54 34 88.5t87 34.5q49 0 82 -34t33 -89q0 -53 -33 -86 t-82 -33q-53 0 -87 33t-34 86z" />
<glyph unicode="&#x202f;" horiz-adv-x="396" />
<glyph unicode="&#x2039;" horiz-adv-x="558" d="M121 572q0 29 14 52l173 290q24 40 68 40q28 0 47.5 -16.5t19.5 -42.5q0 -17 -8 -35l-142 -290l142 -289q8 -16 8 -36q0 -27 -19.5 -43.5t-45.5 -16.5q-19 0 -37.5 11t-30.5 30l-175 293q-14 27 -14 53z" />
<glyph unicode="&#x203a;" horiz-adv-x="554" d="M114 897q0 26 19 41.5t48 15.5q45 0 69 -40l169 -290q17 -29 18 -52q0 -24 -18 -53l-169 -293q-26 -41 -67 -41q-29 0 -47.5 17t-18.5 43q0 19 8 36l144 289l-144 290q-11 21 -11 37z" />
<glyph unicode="&#x205f;" horiz-adv-x="495" />
<glyph unicode="&#x20ac;" d="M19 595q0 29 18.5 47t46.5 18h164q-2 33 -3 99q0 66 3 99h-164q-28 0 -46.5 18.5t-18.5 46.5t18.5 45t46.5 17h178q44 265 183.5 406.5t360.5 141.5q112 0 228.5 -44t204.5 -132q35 -33 34 -73q0 -32 -17 -53.5t-41 -21.5q-35 0 -62 24q-88 82 -170 116t-172 34 q-310 0 -374 -398h326q29 0 46.5 -17.5t17.5 -44.5q0 -28 -17.5 -46.5t-46.5 -18.5h-340q-2 -33 -2 -99t2 -99h340q31 0 47.5 -17t16.5 -48q0 -26 -17.5 -44t-46.5 -18h-326q60 -400 374 -400q81 0 157.5 36t184.5 115q37 24 62 24q26 0 42 -21.5t16 -54.5q0 -41 -34 -72 q-95 -84 -210 -130.5t-223 -46.5q-221 0 -362 143t-182 407h-178q-28 0 -46.5 18.5t-18.5 43.5z" />
<glyph unicode="&#x2122;" horiz-adv-x="1966" d="M0 1447q0 69 78 69h636q78 0 78 -69q0 -33 -20.5 -49.5t-57.5 -16.5h-238v-702q0 -36 -23 -57.5t-57 -21.5q-37 0 -60.5 21.5t-23.5 57.5v702h-234q-78 0 -78 66zM911 679v766q0 37 23 58.5t55 21.5q45 0 78 -56l287 -555l289 555q33 56 75 56q32 0 55 -21.5t23 -58.5 v-766q0 -39 -22 -59t-52 -20t-50 20t-20 59v536l-222 -423q-28 -52 -76 -52q-45 0 -72 52l-224 417v-530q0 -39 -21.5 -59t-51.5 -20q-31 0 -52.5 20t-21.5 59z" />
<glyph unicode="&#x25fc;" horiz-adv-x="1063" d="M0 0v1065h1065v-1065h-1065z" />
</font>
</defs>
</svg>
